<svg width="32" height="32" viewBox="0 0 32 32" fill="none" xmlns="http://www.w3.org/2000/svg">
<path d="M13.4477 5.55375C14.3597 3.9744 16.6393 3.9743 17.5512 5.55375L26.8706 21.6963C27.7824 23.2758 26.6426 25.25 24.8188 25.25H6.17915C4.35564 25.2498 3.21587 23.2757 4.12739 21.6963L13.4477 5.55375ZM15.5942 19.9346C14.9118 19.9347 14.3903 20.3817 14.3901 20.9668C14.3901 21.552 14.9116 22 15.5942 22C16.2767 21.9999 16.7993 21.5519 16.7993 20.9668C16.799 20.3819 16.2766 19.9346 15.5942 19.9346ZM15.5942 9.95317C15.1526 9.95324 14.7915 10.2631 14.7915 10.6416V17.8692C14.7915 18.2477 15.1526 18.5576 15.5942 18.5577C16.0359 18.5577 16.3969 18.2478 16.3969 17.8692V10.6416C16.3969 10.263 16.0359 9.95317 15.5942 9.95317Z" fill="#FAA21B"/>
</svg>
