<svg width="32" height="32" viewBox="0 0 32 32" fill="none" xmlns="http://www.w3.org/2000/svg">
<path d="M23.0488 3.33911C23.463 3.33911 23.7988 3.6749 23.7988 4.08911C23.7988 4.50332 23.463 4.83911 23.0488 4.83911H6.04883C5.71731 4.83911 5.39946 4.9709 5.16504 5.20532C4.93062 5.43974 4.79883 5.75759 4.79883 6.08911C4.79883 6.42063 4.93062 6.73848 5.16504 6.9729C5.39946 7.20732 5.71731 7.33911 6.04883 7.33911H26.0488C26.513 7.33911 26.9579 7.52362 27.2861 7.85181C27.6143 8.18 27.7988 8.62498 27.7988 9.08911V11.6529C27.7988 11.9462 27.5475 12.1751 27.2543 12.1659C27.1598 12.1629 27.0649 12.1614 26.9697 12.1614C21.7775 12.1616 17.5684 16.3704 17.5684 21.5627C17.5684 22.4623 17.6954 23.3322 17.9316 24.1559C18.0277 24.4909 17.7854 24.8391 17.4369 24.8391H6.04883C5.31948 24.8391 4.62022 24.5492 4.10449 24.0334C3.58877 23.5177 3.29883 22.8185 3.29883 22.0891V6.08911C3.29883 5.35977 3.58877 4.6605 4.10449 4.14478C4.62022 3.62905 5.31948 3.33911 6.04883 3.33911H23.0488ZM8.16113 11.0891C7.33275 11.0892 6.66113 11.7607 6.66113 12.5891C6.66113 13.4175 7.33275 14.0891 8.16113 14.0891C8.98956 14.0891 9.66113 13.4175 9.66113 12.5891C9.66113 11.7607 8.98956 11.0891 8.16113 11.0891Z" fill="#141ED2"/>
<path d="M28.4989 16.7055C28.4989 16.5645 28.3846 16.4501 28.2436 16.4501H27.678V15.2198C27.678 15.0788 27.5637 14.9645 27.4227 14.9645H26.8608C26.7198 14.9645 26.6055 15.0788 26.6055 15.2198V16.4501H24.1466C24.0056 16.4501 23.8912 16.5645 23.8912 16.7055V16.9927C23.8912 17.1337 24.0056 17.248 24.1466 17.248H26.6055V20.9277C26.6055 20.9324 26.6017 20.9362 26.5971 20.9362C26.5941 20.9362 26.5913 20.9346 26.5898 20.9321C26.0996 20.123 25.2666 19.6569 24.2885 19.6569C22.4745 19.6569 21.1372 21.1563 21.1372 23.1372C21.1372 25.1731 22.5142 26.5212 24.3017 26.5212C25.3459 26.5212 26.1657 26.014 26.6296 25.2048C26.6311 25.2022 26.6339 25.2006 26.6369 25.2006C26.6415 25.2006 26.6452 25.2044 26.6452 25.209V26.1833C26.6452 26.3243 26.7596 26.4387 26.9006 26.4387H27.4227C27.5637 26.4387 27.678 26.3243 27.678 26.1833V17.248H28.2436C28.3846 17.248 28.4989 17.1337 28.4989 16.9927V16.7055ZM24.4473 25.5032C23.1365 25.5032 22.2362 24.4853 22.2362 23.1372C22.2362 21.6515 23.2292 20.6748 24.4606 20.6748C25.7581 20.6748 26.6452 21.7616 26.6452 23.1372C26.6452 24.5541 25.6655 25.5032 24.4473 25.5032ZM21.4683 28.2055C21.4683 28.3465 21.5826 28.4608 21.7236 28.4608H27.4227C27.5637 28.4608 27.678 28.3465 27.678 28.2055V27.6844C27.678 27.5434 27.5637 27.4291 27.4227 27.4291H21.7236C21.5826 27.4291 21.4683 27.5434 21.4683 27.6844V28.2055Z" fill="#141ED2"/>
<path d="M21.2681 28.2057V27.6842C21.2682 27.433 21.472 27.2293 21.7232 27.2291L21.7236 27.4291C21.5826 27.4291 21.4683 27.5434 21.4683 27.6844V28.2055L21.4732 28.2565C21.4968 28.3729 21.6002 28.4606 21.7236 28.4608H27.4227C27.5462 28.4608 27.6487 28.373 27.6724 28.2565L27.678 28.2055V27.6844C27.6779 27.5611 27.5904 27.458 27.4742 27.4342L27.4227 27.4291L27.4224 27.2291C27.6738 27.2291 27.8783 27.4328 27.8785 27.6842V28.2057C27.8784 28.4571 27.6738 28.6608 27.4224 28.6608H21.7232C21.472 28.6606 21.2682 28.4569 21.2681 28.2057ZM27.4224 27.2291L27.4227 27.4291H21.7236L21.7232 27.2291H27.4224ZM26.4449 23.1373C26.4449 21.8441 25.6214 20.8746 24.4605 20.8746C23.352 20.8747 22.4361 21.7494 22.4361 23.1373C22.4361 24.391 23.263 25.3033 24.4478 25.3033L24.4473 25.5032L24.2066 25.4918C23.1063 25.3829 22.3436 24.5273 22.2466 23.3864L22.2362 23.1372C22.2362 21.6515 23.2292 20.6748 24.4606 20.6748C25.7581 20.6748 26.6452 21.7616 26.6452 23.1372L26.6343 23.3971C26.5223 24.6688 25.5892 25.503 24.4473 25.5032L24.4478 25.3033C25.5473 25.3031 26.4448 24.4516 26.4449 23.1373ZM26.5898 20.9321C26.1302 20.1736 25.3694 19.7169 24.4703 19.6627L24.2885 19.6569C22.4745 19.6569 21.1372 21.1563 21.1372 23.1372L21.1412 23.3258C21.2235 25.2558 22.5702 26.521 24.3017 26.5212C25.3459 26.5212 26.1657 26.014 26.6296 25.2048C26.6311 25.2022 26.6339 25.2006 26.6369 25.2006C26.6415 25.2006 26.6452 25.2044 26.6452 25.209V26.1833C26.6452 26.3067 26.7328 26.4094 26.8492 26.4332L26.9006 26.4387H27.4227C27.546 26.4387 27.6485 26.3512 27.6724 26.235L27.678 26.1833V17.248H28.2436L28.2955 17.2428C28.3948 17.2223 28.4732 17.144 28.4937 17.0446L28.4989 16.9927V16.7055C28.4989 16.5823 28.4116 16.4797 28.2955 16.4557L28.2436 16.4501L28.2437 16.2506C28.4951 16.2507 28.6988 16.4543 28.6988 16.7057V16.9928C28.6987 17.2442 28.4951 17.4478 28.2437 17.4479H27.8785V26.1832C27.8785 26.4347 27.6739 26.6383 27.4224 26.6383H26.9009C26.6495 26.6383 26.4449 26.4347 26.4449 26.1832V25.7985C25.9271 26.3761 25.1871 26.7213 24.3013 26.7213C22.396 26.7211 20.9371 25.2756 20.9371 23.1373C20.9371 21.066 22.3452 19.4567 24.2886 19.4567C25.128 19.4567 25.8719 19.78 26.4058 20.3571V17.4479H24.147C23.8956 17.4479 23.691 17.2442 23.691 16.9928V16.7057C23.691 16.4542 23.8955 16.2506 24.147 16.2506L24.1466 16.4501L24.0953 16.4557C23.9789 16.4795 23.8912 16.5821 23.8912 16.7055V16.9927L23.896 17.0446C23.9166 17.1442 23.9956 17.2225 24.0953 17.2428L24.1466 17.248H26.6055V20.9277L26.5971 20.9362L26.5898 20.9321ZM27.678 15.2198C27.678 15.0788 27.5637 14.9645 27.4227 14.9645L27.4224 14.7643C27.6737 14.7643 27.8782 14.9681 27.8785 15.2194V16.2506H28.2437L28.2436 16.4501H27.678V15.2198ZM26.4058 15.2194C26.406 14.9681 26.6096 14.7643 26.8609 14.7643L26.8608 14.9645C26.7198 14.9645 26.6055 15.0788 26.6055 15.2198V16.4501H24.1466L24.147 16.2506H26.4058V15.2194ZM27.4224 14.7643L27.4227 14.9645H26.8608L26.8609 14.7643H27.4224Z" fill="#141ED2"/>
</svg>
