<svg width="32" height="32" viewBox="0 0 32 32" fill="none" xmlns="http://www.w3.org/2000/svg">
<path d="M30.53 7.49972C30.386 7.40987 30.2216 7.35813 30.0521 7.34939C29.8826 7.34064 29.7137 7.37517 29.5613 7.44972C24.195 10.0747 20.3625 8.84472 16.3113 7.54722C12.05 6.19097 7.65 4.78472 1.56125 7.75722C1.3931 7.83932 1.25135 7.96696 1.15213 8.12561C1.05292 8.28427 1.00021 8.46759 1 8.65472V23.646C0.999976 23.8156 1.04312 23.9825 1.12538 24.1309C1.20764 24.2793 1.3263 24.4043 1.4702 24.4942C1.6141 24.5841 1.77851 24.6359 1.94794 24.6448C2.11738 24.6536 2.28628 24.6192 2.43875 24.5447C7.805 21.9197 11.6375 23.1497 15.695 24.4472C18.1 25.216 20.55 25.9997 23.32 25.9997C25.4562 25.9997 27.7863 25.5347 30.4338 24.2422C30.6019 24.1601 30.7436 24.0325 30.8429 23.8738C30.9421 23.7152 30.9948 23.5318 30.995 23.3447V8.35347C30.9965 8.18336 30.9546 8.01568 30.8732 7.86628C30.7919 7.71689 30.6737 7.59072 30.53 7.49972ZM6 18.9997C6 19.2649 5.89464 19.5193 5.70711 19.7068C5.51957 19.8944 5.26522 19.9997 5 19.9997C4.73478 19.9997 4.48043 19.8944 4.29289 19.7068C4.10536 19.5193 4 19.2649 4 18.9997V10.9997C4 10.7345 4.10536 10.4801 4.29289 10.2926C4.48043 10.1051 4.73478 9.99972 5 9.99972C5.26522 9.99972 5.51957 10.1051 5.70711 10.2926C5.89464 10.4801 6 10.7345 6 10.9997V18.9997ZM16 19.9997C15.2089 19.9997 14.4355 19.7651 13.7777 19.3256C13.1199 18.8861 12.6072 18.2614 12.3045 17.5304C12.0017 16.7995 11.9225 15.9953 12.0769 15.2194C12.2312 14.4434 12.6122 13.7307 13.1716 13.1713C13.731 12.6119 14.4437 12.2309 15.2196 12.0766C15.9956 11.9222 16.7998 12.0014 17.5307 12.3042C18.2616 12.6069 18.8864 13.1196 19.3259 13.7774C19.7654 14.4352 20 15.2086 20 15.9997C20 17.0606 19.5786 18.078 18.8284 18.8281C18.0783 19.5783 17.0609 19.9997 16 19.9997ZM28 20.9997C28 21.2649 27.8946 21.5193 27.7071 21.7068C27.5196 21.8944 27.2652 21.9997 27 21.9997C26.7348 21.9997 26.4804 21.8944 26.2929 21.7068C26.1054 21.5193 26 21.2649 26 20.9997V12.9997C26 12.7345 26.1054 12.4801 26.2929 12.2926C26.4804 12.1051 26.7348 11.9997 27 11.9997C27.2652 11.9997 27.5196 12.1051 27.7071 12.2926C27.8946 12.4801 28 12.7345 28 12.9997V20.9997Z" fill="#141ED2"/>
</svg>
