<svg width="32" height="32" viewBox="0 0 32 32" fill="none" xmlns="http://www.w3.org/2000/svg">
<path d="M26.2222 14.2221H20.8889C20.4174 14.2221 19.9652 14.0348 19.6318 13.7014C19.2984 13.368 19.1111 12.9159 19.1111 12.4444V10.6666H17.3333C17.0976 10.6666 16.8715 10.7602 16.7048 10.9269C16.5381 11.0936 16.4444 11.3197 16.4444 11.5555V20.4444C16.4444 20.6801 16.5381 20.9062 16.7048 21.0729C16.8715 21.2396 17.0976 21.3333 17.3333 21.3333H19.1111V19.5555C19.1111 19.084 19.2984 18.6318 19.6318 18.2984C19.9652 17.965 20.4174 17.7777 20.8889 17.7777H26.2222C26.6937 17.7777 27.1459 17.965 27.4793 18.2984C27.8127 18.6318 28 19.084 28 19.5555V24.8888C28 25.3603 27.8127 25.8125 27.4793 26.1459C27.1459 26.4793 26.6937 26.6666 26.2222 26.6666H20.8889C20.4174 26.6666 19.9652 26.4793 19.6318 26.1459C19.2984 25.8125 19.1111 25.3603 19.1111 24.8888V23.111H17.3333C16.6261 23.111 15.9478 22.8301 15.4477 22.33C14.9476 21.8299 14.6667 21.1516 14.6667 20.4444V16.8888H11.1111V17.7777C11.1111 18.2492 10.9238 18.7014 10.5904 19.0348C10.257 19.3682 9.80483 19.5555 9.33333 19.5555H5.77778C5.30628 19.5555 4.8541 19.3682 4.5207 19.0348C4.1873 18.7014 4 18.2492 4 17.7777V14.2221C4 13.7506 4.1873 13.2985 4.5207 12.9651C4.8541 12.6317 5.30628 12.4444 5.77778 12.4444H9.33333C9.80483 12.4444 10.257 12.6317 10.5904 12.9651C10.9238 13.2985 11.1111 13.7506 11.1111 14.2221V15.111H14.6667V11.5555C14.6667 10.8482 14.9476 10.17 15.4477 9.66986C15.9478 9.16976 16.6261 8.88881 17.3333 8.88881H19.1111V7.11103C19.1111 6.63953 19.2984 6.18735 19.6318 5.85395C19.9652 5.52055 20.4174 5.33325 20.8889 5.33325H26.2222C26.6937 5.33325 27.1459 5.52055 27.4793 5.85395C27.8127 6.18735 28 6.63953 28 7.11103V12.4444C28 12.9159 27.8127 13.368 27.4793 13.7014C27.1459 14.0348 26.6937 14.2221 26.2222 14.2221Z" fill="#141ED2"/>
</svg>
