<svg width="32" height="32" viewBox="0 0 32 32" fill="none" xmlns="http://www.w3.org/2000/svg">
<path d="M14.5083 4.03516C23.0019 4.03516 23.0019 7.56321 23.0019 7.56321C23.0019 7.56321 23.0019 11.0913 14.5083 11.0913C6.01465 11.0913 6.01465 7.56321 6.01465 7.56321C6.01465 7.56321 6.01465 4.03516 14.5083 4.03516Z" fill="#141ED2"/>
<path d="M23.0352 16.7056H23.0176C22.9173 17.3264 22.0497 20.017 14.5166 20.0171C6.98304 20.0171 6.11495 17.3264 6.01465 16.7056H6.00195V16.5952C6.0014 16.5846 6 16.5786 6 16.5786C6.00001 16.577 6.0014 16.5711 6.00195 16.561V9.76123C6.56499 10.7154 8.41686 12.311 14.5156 12.311C20.9536 12.311 22.5957 10.5336 23.0146 9.60889H23.0352V16.7056Z" fill="#141ED2"/>
<path d="M23.2873 26.8912V20.0098M19.7373 23.4505L23.2873 20.0098L26.8373 23.4505" stroke="#141ED2" stroke-width="1.5" stroke-linecap="round" stroke-linejoin="round"/>
<path d="M6.00195 18.8623C6.56524 19.8165 8.41756 21.4121 14.5156 21.4121C15.5043 21.4121 16.3798 21.3692 17.1553 21.2949V26.4502C16.3819 26.5324 15.507 26.581 14.5166 26.5811C6.79226 26.5811 6.07655 23.7525 6.00977 23.2266H6.00195V23.1602C6.00143 23.1504 6.00003 23.1448 6 23.1436C6.00011 23.1431 6.00136 23.1369 6.00195 23.126V18.8623Z" fill="#141ED2"/>
</svg>
