<svg width="32" height="32" viewBox="0 0 32 32" fill="none" xmlns="http://www.w3.org/2000/svg">
<path d="M16 27.5C22.6429 27.5 28 22.1429 28 15.5C28 8.85714 22.6429 3.5 16 3.5C9.35714 3.5 4 8.85714 4 15.5C4 22.1429 9.35714 27.5 16 27.5ZM15.1429 8.64286C15.1429 8.17141 15.5286 7.78579 16 7.78579C16.4714 7.78579 16.8571 8.17143 16.8571 8.64286L16.8571 17.6429C16.8571 18.1143 16.4714 18.4999 16 18.4999C15.5286 18.4999 15.1429 18.1143 15.1429 17.6429L15.1429 13.1429L15.1429 8.64286ZM16 20.2143C16.7285 20.2143 17.2858 20.7715 17.2858 21.5001C17.2858 22.2286 16.7286 22.7859 16 22.7859C15.2714 22.7859 14.7142 22.2286 14.7142 21.5001C14.7142 20.7712 15.2714 20.2143 16 20.2143Z" fill="#F00000"/>
</svg>
