<svg width="32" height="32" viewBox="0 0 32 32" fill="none" xmlns="http://www.w3.org/2000/svg">
<path d="M25.3872 24.3054H6.61235C6.21364 24.3288 5.82199 24.1915 5.52312 23.9235C5.22424 23.6555 5.04247 23.2786 5.01758 22.8754V9.94473C5.04247 9.5415 5.22424 9.16465 5.52312 8.89667C5.82199 8.62868 6.21364 8.49137 6.61235 8.51478H25.3872C25.7859 8.49137 26.1776 8.62868 26.4764 8.89667C26.7753 9.16465 26.9571 9.5415 26.982 9.94473V22.8754C26.9571 23.2786 26.7753 23.6555 26.4764 23.9235C26.1776 24.1915 25.7859 24.3288 25.3872 24.3054Z" stroke="#141ED2" stroke-width="1.5" stroke-miterlimit="10" stroke-linecap="round"/>
<path d="M11.6992 24.3052V8.51465" stroke="#141ED2" stroke-width="1.5" stroke-miterlimit="10" stroke-linecap="round"/>
<path d="M5.01758 13.5132H26.982" stroke="#141ED2" stroke-width="1.5" stroke-miterlimit="10" stroke-linecap="round"/>
<path d="M5 19.0923H27" stroke="#141ED2" stroke-width="1.5" stroke-miterlimit="10" stroke-linecap="round"/>
</svg>
