<svg width="32" height="32" viewBox="0 0 32 32" fill="none" xmlns="http://www.w3.org/2000/svg">
<path fill-rule="evenodd" clip-rule="evenodd" d="M10.0673 11.9951C10.209 11.8072 10.4307 11.6968 10.666 11.6968H14.666C14.9352 11.6968 15.1837 11.841 15.3172 12.0747L20.4346 21.0301H26.666C27.5722 21.0301 28.4412 21.3901 29.082 22.0308C29.7227 22.6716 30.0827 23.5406 30.0827 24.4468C30.0827 25.3529 29.7227 26.222 29.082 26.8627C28.4412 27.5035 27.5722 27.8634 26.666 27.8634H6.66602C6.38194 27.8634 6.12224 27.7029 5.9952 27.4489L1.9952 19.4489C1.87895 19.2164 1.89137 18.9403 2.02803 18.7191C2.16468 18.498 2.40608 18.3634 2.66602 18.3634H6.66602C6.86493 18.3634 7.05569 18.4425 7.19635 18.5831L9.64334 21.0301H12.3384L9.94487 12.6528C9.88022 12.4265 9.92553 12.183 10.0673 11.9951ZM11.6603 13.1968L14.0538 21.5741C14.1185 21.8004 14.0732 22.0439 13.9314 22.2318C13.7897 22.4196 13.568 22.5301 13.3327 22.5301H9.33268C9.13377 22.5301 8.94301 22.4511 8.80235 22.3104L6.35536 19.8634H3.87954L7.12954 26.3634H26.666C27.1743 26.3634 27.6619 26.1615 28.0213 25.8021C28.3807 25.4426 28.5827 24.9551 28.5827 24.4468C28.5827 23.9384 28.3807 23.4509 28.0213 23.0915C27.6619 22.732 27.1743 22.5301 26.666 22.5301H19.9993C19.7302 22.5301 19.4817 22.3859 19.3482 22.1522L14.2308 13.1968H11.6603Z" fill="#2C3E50"/>
<path fill-rule="evenodd" clip-rule="evenodd" d="M15.6954 2.98115C15.8893 2.89496 16.1107 2.89496 16.3046 2.98115L28.3046 8.31448C28.6831 8.48271 28.8536 8.92593 28.6854 9.30444C28.5171 9.68295 28.0739 9.85342 27.6954 9.6852L16 4.48724L4.3046 9.6852C3.92609 9.85342 3.48287 9.68295 3.31464 9.30444C3.14641 8.92593 3.31688 8.48271 3.6954 8.31448L15.6954 2.98115Z" fill="#2C3E50"/>
</svg>
