<svg width="32" height="32" viewBox="0 0 32 32" fill="none" xmlns="http://www.w3.org/2000/svg">
<path d="M15.8242 4L17.7447 5.52584C17.9928 5.723 18.2613 5.89357 18.5455 6.03471L19.1034 6.31174C20.0925 6.8029 20.7173 7.80691 20.7173 8.90519V9.39599C21.6553 8.90889 22.7898 8.96328 23.6785 9.546L24.199 9.88731C24.4642 10.0612 24.7472 10.2068 25.0432 10.3216L27.334 11.2105L26.9637 13.6252C26.9158 13.9372 26.9013 14.2533 26.9203 14.5684L26.9577 15.1867C27.024 16.283 26.4608 17.3224 25.5031 17.8716L24.3375 18.5399L24.9555 19.603C25.5084 20.5541 25.4728 21.7339 24.8635 22.6504L24.5198 23.1673C24.3447 23.4307 24.1981 23.7117 24.0825 24.0057L23.1875 26.2808L20.756 25.913C20.4419 25.8655 20.1235 25.851 19.8063 25.87C19.3673 25.8961 18.9901 25.5639 18.9638 25.128C18.9374 24.692 19.2719 24.3174 19.7109 24.2912C20.1401 24.2656 20.5708 24.2851 20.9958 24.3494L22.1677 24.5267L22.5991 23.4301C22.7556 23.0324 22.9539 22.6522 23.1908 22.2959L23.5345 21.779C23.8115 21.3624 23.8277 20.8261 23.5763 20.3938L22.162 17.961L24.7069 16.5019C25.1422 16.2523 25.3982 15.7798 25.368 15.2815L25.3307 14.6631C25.3049 14.2369 25.3246 13.8092 25.3893 13.387L25.5678 12.2232L24.4636 11.7948C24.0632 11.6394 23.6803 11.4424 23.3215 11.2072L22.801 10.8658C22.3815 10.5908 21.8415 10.5747 21.4062 10.8243L19.1248 12.1324V8.90519C19.1248 8.40597 18.8408 7.9496 18.3912 7.72635L17.8333 7.44932C17.4487 7.25836 17.0856 7.02759 16.7498 6.76085L15.8242 6.02541L14.8985 6.76085C14.5628 7.02759 14.1996 7.25836 13.815 7.44932L13.2571 7.72635C12.8075 7.9496 12.5235 8.40597 12.5235 8.90519V12.1212L10.2617 10.8243C9.82642 10.5747 9.28645 10.5908 8.86696 10.8659L8.34644 11.2072C7.98764 11.4424 7.60481 11.6394 7.20434 11.7948L6.10019 12.2232L6.27868 13.3871C6.34341 13.8092 6.36307 14.2369 6.3373 14.6632L6.29993 15.2815C6.26981 15.7798 6.52578 16.2523 6.9611 16.5019L9.67224 18.0564L8.31341 20.3938C8.06207 20.8261 8.07826 21.3624 8.35523 21.779L8.69891 22.2959C8.93581 22.6522 9.13414 23.0324 9.2906 23.4301L9.72198 24.5267L10.8939 24.3494C11.3189 24.2851 11.7497 24.2656 12.1788 24.2912C12.6178 24.3174 12.9523 24.692 12.926 25.128C12.8996 25.5639 12.5224 25.8961 12.0834 25.87C11.7662 25.851 11.4478 25.8655 11.1337 25.913L8.70226 26.2808L7.80726 24.0057C7.69161 23.7117 7.54502 23.4307 7.36992 23.1673L7.02624 22.6504C6.41691 21.7339 6.38129 20.5541 6.93423 19.603L7.4968 18.6353L6.16484 17.8716C5.20712 17.3224 4.644 16.283 4.71026 15.1867L4.74763 14.5684C4.76667 14.2534 4.75215 13.9372 4.7043 13.6252L4.33398 11.2105L6.62481 10.3217C6.92081 10.2068 7.20377 10.0612 7.46897 9.88732L7.98949 9.54601C8.87197 8.96736 9.99682 8.90969 10.931 9.38589V8.90519C10.931 7.80691 11.5558 6.8029 12.5449 6.31174L13.1028 6.03471C13.3871 5.89357 13.6555 5.723 13.9036 5.52584L15.8242 4Z" fill="#141ED2"/>
<path d="M9.863 15.1179C10.1069 14.7545 10.6013 14.6563 10.9672 14.8986C12.7164 16.0567 14.1184 18.0328 15.062 19.6393C15.3608 20.148 15.6194 20.6299 15.834 21.0522C16.0485 20.6299 16.3072 20.148 16.606 19.6393C17.5496 18.0328 18.9516 16.0567 20.7007 14.8986C21.0667 14.6563 21.561 14.7545 21.805 15.1179C22.0489 15.4813 21.95 15.9723 21.5841 16.2145C20.1482 17.1652 18.896 18.8795 17.9816 20.4362C17.5318 21.2019 17.1778 21.905 16.9365 22.4162C16.816 22.6715 16.7241 22.878 16.6628 23.0194L16.6303 23.095V28.2092C16.6303 28.646 16.2738 29 15.834 29C15.3942 29 15.0377 28.646 15.0377 28.2092V23.095L15.0052 23.0194C14.9439 22.878 14.8519 22.6715 14.7315 22.4162C14.4902 21.905 14.1361 21.2019 13.6864 20.4362C12.772 18.8795 11.5198 17.1652 10.0838 16.2145C9.71794 15.9723 9.61906 15.4813 9.863 15.1179Z" fill="#141ED2"/>
<path d="M15.834 16.611C17.0067 16.611 17.9574 15.6668 17.9574 14.5022C17.9574 13.3375 17.0067 12.3934 15.834 12.3934C14.6613 12.3934 13.7106 13.3375 13.7106 14.5022C13.7106 15.6668 14.6613 16.611 15.834 16.611Z" fill="#141ED2"/>
</svg>
