<svg width="32" height="32" viewBox="0 0 32 32" fill="none" xmlns="http://www.w3.org/2000/svg">
<path fill-rule="evenodd" clip-rule="evenodd" d="M15.6679 13.7312C13.7139 13.7312 12.1299 15.3814 12.1299 17.417C12.1299 19.4526 13.7139 21.1027 15.6679 21.1027C17.6219 21.1027 19.2059 19.4526 19.2059 17.417C19.2059 15.3814 17.6219 13.7312 15.6679 13.7312ZM13.5451 17.417C13.5451 16.1956 14.4955 15.2055 15.6679 15.2055C16.8403 15.2055 17.7907 16.1956 17.7907 17.417C17.7907 18.6383 16.8403 19.6284 15.6679 19.6284C14.4955 19.6284 13.5451 18.6383 13.5451 17.417Z" fill="#141ED2"/>
<path d="M14.7245 22.5771C14.3337 22.5771 14.0169 22.9071 14.0169 23.3142C14.0169 23.7213 14.3337 24.0514 14.7245 24.0514H16.6114C17.0022 24.0514 17.319 23.7213 17.319 23.3142C17.319 22.9071 17.0022 22.5771 16.6114 22.5771H14.7245Z" fill="#141ED2"/>
<path fill-rule="evenodd" clip-rule="evenodd" d="M7.96498 6.08184C12.9999 4.63939 18.336 4.63939 23.371 6.08184C25.3153 6.63886 26.668 8.48189 26.668 10.5845V11.9801C26.668 13.4164 25.5897 14.6019 24.2129 14.6791L23.8772 14.6979L23.884 14.7176L26.35 22.1033C27.1497 24.4985 25.4426 27 23.0083 27H8.27328C5.85839 27 4.15317 24.5353 4.91683 22.1487L7.30458 14.6862L7.12689 14.6765C5.74856 14.6014 4.66797 13.4152 4.66797 11.9773V10.5845C4.66797 8.48189 6.02064 6.63886 7.96498 6.08184ZM22.9957 7.50338C18.2063 6.13129 13.1296 6.13129 8.34023 7.50338C7.00846 7.88491 6.08317 9.14742 6.08317 10.5845V11.9773C6.08317 12.6309 6.57435 13.1701 7.20087 13.2042L9.22867 13.3148C9.86712 13.3496 10.4031 12.8197 10.4031 12.1537V10.7628C10.4031 10.3968 10.5834 10.0564 10.8805 9.86124C13.8094 7.93747 17.5315 7.9075 20.4886 9.78387L20.5983 9.85352C20.9055 10.0484 21.0929 10.396 21.0929 10.7707V12.1684C21.0929 12.8255 21.6222 13.348 22.2521 13.3127L24.1368 13.2069C24.7626 13.1718 25.2528 12.633 25.2528 11.9801V10.5845C25.2528 9.14742 24.3275 7.88491 22.9957 7.50338ZM22.3281 14.7848L22.531 14.7735C22.4966 14.9101 22.4995 15.0585 22.5474 15.2019L25.0133 22.5877C25.4932 24.0248 24.4689 25.5257 23.0083 25.5257H8.27328C6.82434 25.5257 5.80122 24.0469 6.25941 22.6149L8.77076 14.7662L9.1547 14.7871C10.6027 14.8661 11.8183 13.6642 11.8183 12.1537V10.9918C14.2385 9.49822 17.2532 9.49651 19.6777 10.9962V12.1684C19.6777 13.6709 20.888 14.8656 22.3281 14.7848Z" fill="#141ED2"/>
</svg>
