<svg width="32" height="32" viewBox="0 0 32 32" fill="none" xmlns="http://www.w3.org/2000/svg">
<path d="M9.8627 19.3055C10.4702 19.3055 10.9627 18.813 10.9627 18.2055C10.9627 17.5979 10.4702 17.1055 9.8627 17.1055C9.25519 17.1055 8.7627 17.5979 8.7627 18.2055C8.7627 18.813 9.25519 19.3055 9.8627 19.3055Z" fill="#141ED2" stroke="#141ED2" stroke-width="0.5" stroke-linecap="round" stroke-linejoin="round"/>
<path d="M5 13.4V9.66C5 9.29549 5.29549 9 5.66 9H26.34C26.7045 9 27 9.29549 27 9.66V13.4M5 13.4V23.74C5 24.1045 5.29549 24.4 5.66 24.4H26.34C26.7045 24.4 27 24.1045 27 23.74V13.4M5 13.4H27" stroke="#141ED2" stroke-width="1.5" stroke-linecap="round" stroke-linejoin="round"/>
<path d="M5.75 23.6504H26.25V14.1504H5.75V23.6504ZM10.2129 18.2051C10.2127 18.012 10.0555 17.8555 9.8623 17.8555C9.66931 17.8557 9.51291 18.0121 9.5127 18.2051C9.5127 18.3983 9.66918 18.5555 9.8623 18.5557C10.0556 18.5557 10.2129 18.3984 10.2129 18.2051ZM5.75 12.6504H26.25V9.75H5.75V12.6504ZM11.7129 18.2051C11.7129 19.2268 10.884 20.0557 9.8623 20.0557C8.84077 20.0555 8.0127 19.2267 8.0127 18.2051C8.01291 17.1836 8.8409 16.3557 9.8623 16.3555C10.8839 16.3555 11.7127 17.1835 11.7129 18.2051ZM27.75 23.7402C27.7499 24.5189 27.1185 25.1504 26.3398 25.1504H5.66016C4.88154 25.1504 4.25013 24.5189 4.25 23.7402V9.66016C4.25 8.88144 4.88144 8.25 5.66016 8.25H26.3398C27.1186 8.25 27.75 8.88146 27.75 9.66016V23.7402Z" fill="#141ED2"/>
</svg>
