<svg width="32" height="32" viewBox="0 0 32 32" fill="none" xmlns="http://www.w3.org/2000/svg">
<path d="M15.335 27.0015V22.356L13.3877 24.3032C13.0948 24.5961 12.62 24.5961 12.3271 24.3032C12.0343 24.0103 12.0343 23.5355 12.3271 23.2427L15.5547 20.0151L15.6123 19.9634C15.9069 19.7234 16.3407 19.7407 16.6152 20.0151L19.8438 23.2427C20.1366 23.5355 20.1364 24.0103 19.8438 24.3032C19.5509 24.5961 19.0761 24.5961 18.7832 24.3032L16.835 22.355V27.0015C16.8348 27.4156 16.4991 27.7515 16.085 27.7515C15.671 27.7513 15.3351 27.4155 15.335 27.0015ZM7.15039 17.1626H7.47656C10.5292 17.1625 13.0218 14.7651 13.1748 11.7505L13.1826 11.4565L13.1748 11.1626C13.0219 8.14791 10.5292 5.75058 7.47656 5.75049H7.15039V17.1626ZM16.084 5.75049C15.3099 5.75069 14.6826 6.37866 14.6826 7.15283V15.7603C14.6826 16.5344 15.3099 17.1624 16.084 17.1626C16.8583 17.1626 17.4863 16.5346 17.4863 15.7603V7.15283C17.4863 6.37853 16.8583 5.75049 16.084 5.75049ZM24.6924 5.75049C21.5411 5.75049 18.9863 8.30522 18.9863 11.4565L18.9941 11.7505C19.1472 14.7652 21.6397 17.1626 24.6924 17.1626H25.0186V5.75049H24.6924ZM26.5186 17.2671C26.5184 18.0376 25.8936 18.6624 25.123 18.6626H24.6924C22.3677 18.6626 20.301 17.5609 18.9834 15.8521C18.935 17.4124 17.656 18.6626 16.084 18.6626C14.5121 18.6624 13.233 17.4123 13.1846 15.8521C11.8669 17.5606 9.80102 18.6625 7.47656 18.6626H7.0459C6.2752 18.6625 5.65052 18.0377 5.65039 17.2671V5.646C5.65044 4.87527 6.27517 4.25054 7.0459 4.25049H7.47656C9.80079 4.25054 11.8669 5.3518 13.1846 7.06006C13.2334 5.50024 14.5124 4.25069 16.084 4.25049C17.6558 4.25049 18.9346 5.50013 18.9834 7.06006C20.3011 5.35155 22.3679 4.25049 24.6924 4.25049H25.123C25.8936 4.25066 26.5185 4.87532 26.5186 5.646V17.2671Z" fill="#141ED2"/>
</svg>
