<svg width="32" height="32" viewBox="0 0 32 32" fill="none" xmlns="http://www.w3.org/2000/svg">
<path d="M27.196 10.47L20.196 3.47C20.0555 3.32931 19.8649 3.25018 19.666 3.25H7.66602C7.20189 3.25 6.75677 3.43437 6.42858 3.76256C6.10039 4.09075 5.91602 4.53587 5.91602 5V16C5.91602 16.1989 5.99503 16.3897 6.13569 16.5303C6.27634 16.671 6.4671 16.75 6.66602 16.75C6.86493 16.75 7.05569 16.671 7.19635 16.5303C7.337 16.3897 7.41602 16.1989 7.41602 16V5C7.41602 4.9337 7.44235 4.87011 7.48924 4.82322C7.53612 4.77634 7.59971 4.75 7.66602 4.75H18.916V11C18.916 11.1989 18.995 11.3897 19.1357 11.5303C19.2763 11.671 19.4671 11.75 19.666 11.75H25.916V27C25.916 27.0663 25.8897 27.1299 25.8428 27.1768C25.7959 27.2237 25.7323 27.25 25.666 27.25H22.666C22.4671 27.25 22.2763 27.329 22.1357 27.4697C21.995 27.6103 21.916 27.8011 21.916 28C21.916 28.1989 21.995 28.3897 22.1357 28.5303C22.2763 28.671 22.4671 28.75 22.666 28.75H25.666C26.1301 28.75 26.5753 28.5656 26.9035 28.2374C27.2316 27.9092 27.416 27.4641 27.416 27V11C27.4158 10.8012 27.3367 10.6105 27.196 10.47ZM20.416 5.81L24.856 10.25H20.416V5.81ZM14.166 16.25C12.9036 16.2497 11.6707 16.6317 10.6296 17.3457C9.58847 18.0597 8.78799 19.0722 8.33352 20.25H8.16602C7.03885 20.25 5.95784 20.6978 5.16081 21.4948C4.36378 22.2918 3.91602 23.3728 3.91602 24.5C3.91602 25.6272 4.36378 26.7082 5.16081 27.5052C5.95784 28.3022 7.03885 28.75 8.16602 28.75H14.166C15.8236 28.75 17.4133 28.0915 18.5854 26.9194C19.7575 25.7473 20.416 24.1576 20.416 22.5C20.416 20.8424 19.7575 19.2527 18.5854 18.0806C17.4133 16.9085 15.8236 16.25 14.166 16.25ZM14.166 27.25H8.16602C7.45396 27.2509 6.76934 26.9755 6.25618 26.4818C5.74303 25.9882 5.44136 25.3147 5.41464 24.6032C5.38792 23.8916 5.63824 23.1975 6.11292 22.6667C6.58761 22.136 7.24966 21.81 7.95977 21.7575C7.95227 21.8162 7.94727 21.8738 7.94102 21.9325C7.92311 22.1314 7.98496 22.3293 8.11296 22.4826C8.24095 22.6359 8.4246 22.7321 8.62352 22.75C8.82243 22.7679 9.02031 22.7061 9.17362 22.5781C9.32693 22.4501 9.42311 22.2664 9.44102 22.0675C9.46329 21.7916 9.5093 21.518 9.57852 21.25C9.59131 21.215 9.60134 21.1791 9.60852 21.1425C9.8602 20.2986 10.3416 19.5412 10.9988 18.955C11.6561 18.3688 12.4634 17.9769 13.3305 17.8231C14.1976 17.6692 15.0904 17.7594 15.9093 18.0837C16.7281 18.4079 17.4406 18.9534 17.9673 19.6592C18.494 20.3651 18.8141 21.2034 18.8919 22.0806C18.9696 22.9579 18.8019 23.8395 18.4076 24.6269C18.0133 25.4144 17.4078 26.0767 16.6588 26.5399C15.9097 27.0031 15.0467 27.249 14.166 27.25Z" fill="#141ED2"/>
</svg>
