<svg width="32" height="32" viewBox="0 0 32 32" fill="none" xmlns="http://www.w3.org/2000/svg">
<path d="M20.5801 19.8579C20.5801 19.4437 20.9159 19.1079 21.3301 19.1079C21.7443 19.1079 22.0801 19.4437 22.0801 19.8579V21.2808L23.4336 20.8413C23.8275 20.7134 24.2509 20.9289 24.3789 21.3228C24.5069 21.7166 24.2912 22.1399 23.8975 22.2681L22.543 22.7075L23.3799 23.8589C23.6234 24.1939 23.5498 24.6632 23.2148 24.9067C22.8798 25.1502 22.4105 25.0757 22.167 24.7407L21.3281 23.5864L20.4912 24.7407C20.2478 25.0755 19.7793 25.1498 19.4443 24.9067C19.1092 24.6633 19.0349 24.194 19.2783 23.8589L20.1143 22.7075L18.7607 22.2681C18.3668 22.14 18.1513 21.7167 18.2793 21.3228C18.4074 20.9291 18.8299 20.7136 19.2236 20.8413L20.5801 21.2817V19.8579ZM27.5312 19.8579C27.5312 19.4437 27.867 19.1079 28.2812 19.1079C28.6955 19.1079 29.0312 19.4437 29.0312 19.8579V21.2808L30.3848 20.8413C30.7787 20.7134 31.2021 20.9289 31.3301 21.3228C31.4581 21.7166 31.2424 22.1399 30.8486 22.2681L29.4941 22.7075L30.3311 23.8589C30.5745 24.1939 30.501 24.6632 30.166 24.9067C29.831 25.1502 29.3617 25.0757 29.1182 24.7407L28.2812 23.5884L27.4443 24.7407C27.2009 25.0755 26.7325 25.1498 26.3975 24.9067C26.0624 24.6632 25.9879 24.194 26.2314 23.8589L27.0674 22.7075L25.7139 22.2681C25.3199 22.1401 25.1044 21.7167 25.2324 21.3228C25.3605 20.9291 25.783 20.7136 26.1768 20.8413L27.5312 21.2808V19.8579ZM2.81836 23.2192H6.10254C5.83798 22.4639 5.40627 21.774 4.83496 21.2026C4.26365 20.6313 3.57367 20.1996 2.81836 19.9351V23.2192ZM18.5986 15.9692C18.5986 14.5717 17.4658 13.4392 16.0684 13.439C14.6707 13.439 13.5371 14.5715 13.5371 15.9692C13.5371 17.3669 14.6707 18.5005 16.0684 18.5005C17.4658 18.5002 18.5986 17.3668 18.5986 15.9692ZM29.3184 15.9692V13.5708C28.1581 13.2606 27.0948 12.6519 26.2402 11.7974C25.3857 10.9428 24.777 9.87954 24.4668 8.71924H7.66992C7.35972 9.87954 6.75104 10.9428 5.89648 11.7974C5.04193 12.6519 3.97866 13.2606 2.81836 13.5708V18.3667C3.97876 18.6769 5.04187 19.2865 5.89648 20.1411C6.75104 20.9957 7.35972 22.0589 7.66992 23.2192H16.0684C16.4826 23.2192 16.8184 23.555 16.8184 23.9692C16.8184 24.3835 16.4826 24.7192 16.0684 24.7192H2.06836C1.65415 24.7192 1.31836 24.3835 1.31836 23.9692V7.96924C1.31836 7.55502 1.65415 7.21924 2.06836 7.21924H30.0684C30.4826 7.21924 30.8184 7.55502 30.8184 7.96924V15.9692C30.8184 16.3835 30.4826 16.7192 30.0684 16.7192C29.6541 16.7192 29.3184 16.3835 29.3184 15.9692ZM2.81836 12.0024C3.57355 11.7379 4.26372 11.3071 4.83496 10.7358C5.40627 10.1645 5.83798 9.47455 6.10254 8.71924H2.81836V12.0024ZM26.0342 8.71924C26.2987 9.47455 26.7304 10.1645 27.3018 10.7358C27.873 11.3071 28.5632 11.7379 29.3184 12.0024V8.71924H26.0342ZM20.0986 15.9692C20.0986 18.1952 18.2943 20.0002 16.0684 20.0005C13.8422 20.0005 12.0371 18.1954 12.0371 15.9692C12.0371 13.7431 13.8422 11.939 16.0684 11.939C18.2943 11.9392 20.0986 13.7433 20.0986 15.9692Z" fill="black"/>
</svg>
