<svg width="32" height="32" viewBox="0 0 32 32" fill="none" xmlns="http://www.w3.org/2000/svg">
<path d="M28.6216 6.29028V11.145C28.6216 11.4025 28.5193 11.6495 28.3372 11.8316C28.1551 12.0137 27.9081 12.116 27.6506 12.116C27.3931 12.116 27.1462 12.0137 26.9641 11.8316C26.782 11.6495 26.6797 11.4025 26.6797 11.145V7.26123H22.7959C22.5384 7.26123 22.2914 7.15893 22.1093 6.97685C21.9272 6.79476 21.825 6.54779 21.825 6.29028C21.825 6.03277 21.9272 5.78581 22.1093 5.60372C22.2914 5.42163 22.5384 5.31934 22.7959 5.31934H27.6506C27.9081 5.31934 28.1551 5.42163 28.3372 5.60372C28.5193 5.78581 28.6216 6.03277 28.6216 6.29028ZM9.20264 24.7383H5.31885V20.8545C5.31885 20.597 5.21655 20.35 5.03446 20.1679C4.85238 19.9858 4.60541 19.8835 4.3479 19.8835C4.09039 19.8835 3.84342 19.9858 3.66134 20.1679C3.47925 20.35 3.37695 20.597 3.37695 20.8545V25.7092C3.37695 25.9667 3.47925 26.2137 3.66134 26.3958C3.84342 26.5779 4.09039 26.6802 4.3479 26.6802H9.20264C9.46015 26.6802 9.70711 26.5779 9.8892 26.3958C10.0713 26.2137 10.1736 25.9667 10.1736 25.7092C10.1736 25.4517 10.0713 25.2048 9.8892 25.0227C9.70711 24.8406 9.46015 24.7383 9.20264 24.7383ZM27.6506 19.8835C27.3931 19.8835 27.1462 19.9858 26.9641 20.1679C26.782 20.35 26.6797 20.597 26.6797 20.8545V24.7383H22.7959C22.5384 24.7383 22.2914 24.8406 22.1093 25.0227C21.9272 25.2048 21.825 25.4517 21.825 25.7092C21.825 25.9667 21.9272 26.2137 22.1093 26.3958C22.2914 26.5779 22.5384 26.6802 22.7959 26.6802H27.6506C27.9081 26.6802 28.1551 26.5779 28.3372 26.3958C28.5193 26.2137 28.6216 25.9667 28.6216 25.7092V20.8545C28.6216 20.597 28.5193 20.35 28.3372 20.1679C28.1551 19.9858 27.9081 19.8835 27.6506 19.8835ZM4.3479 12.116C4.60541 12.116 4.85238 12.0137 5.03446 11.8316C5.21655 11.6495 5.31885 11.4025 5.31885 11.145V7.26123H9.20264C9.46015 7.26123 9.70711 7.15893 9.8892 6.97685C10.0713 6.79476 10.1736 6.54779 10.1736 6.29028C10.1736 6.03277 10.0713 5.78581 9.8892 5.60372C9.70711 5.42163 9.46015 5.31934 9.20264 5.31934H4.3479C4.09039 5.31934 3.84342 5.42163 3.66134 5.60372C3.47925 5.78581 3.37695 6.03277 3.37695 6.29028V11.145C3.37695 11.4025 3.47925 11.6495 3.66134 11.8316C3.84342 12.0137 4.09039 12.116 4.3479 12.116ZM10.1736 10.1741C9.91607 10.1741 9.66911 10.2764 9.48702 10.4585C9.30493 10.6405 9.20264 10.8875 9.20264 11.145V20.8545C9.20264 21.112 9.30493 21.359 9.48702 21.5411C9.66911 21.7231 9.91607 21.8254 10.1736 21.8254C10.4311 21.8254 10.6781 21.7231 10.8601 21.5411C11.0422 21.359 11.1445 21.112 11.1445 20.8545V11.145C11.1445 10.8875 11.0422 10.6405 10.8601 10.4585C10.6781 10.2764 10.4311 10.1741 10.1736 10.1741ZM22.7959 20.8545V11.145C22.7959 10.8875 22.6936 10.6405 22.5115 10.4585C22.3294 10.2764 22.0825 10.1741 21.825 10.1741C21.5674 10.1741 21.3205 10.2764 21.1384 10.4585C20.9563 10.6405 20.854 10.8875 20.854 11.145V20.8545C20.854 21.112 20.9563 21.359 21.1384 21.5411C21.3205 21.7231 21.5674 21.8254 21.825 21.8254C22.0825 21.8254 22.3294 21.7231 22.5115 21.5411C22.6936 21.359 22.7959 21.112 22.7959 20.8545ZM17.9412 10.1741C17.6837 10.1741 17.4367 10.2764 17.2546 10.4585C17.0725 10.6405 16.9702 10.8875 16.9702 11.145V20.8545C16.9702 21.112 17.0725 21.359 17.2546 21.5411C17.4367 21.7231 17.6837 21.8254 17.9412 21.8254C18.1987 21.8254 18.4456 21.7231 18.6277 21.5411C18.8098 21.359 18.9121 21.112 18.9121 20.8545V11.145C18.9121 10.8875 18.8098 10.6405 18.6277 10.4585C18.4456 10.2764 18.1987 10.1741 17.9412 10.1741ZM14.0574 10.1741C13.7999 10.1741 13.5529 10.2764 13.3708 10.4585C13.1887 10.6405 13.0864 10.8875 13.0864 11.145V20.8545C13.0864 21.112 13.1887 21.359 13.3708 21.5411C13.5529 21.7231 13.7999 21.8254 14.0574 21.8254C14.3149 21.8254 14.5618 21.7231 14.7439 21.5411C14.926 21.359 15.0283 21.112 15.0283 20.8545V11.145C15.0283 10.8875 14.926 10.6405 14.7439 10.4585C14.5618 10.2764 14.3149 10.1741 14.0574 10.1741Z" fill="#141ED2"/>
</svg>
