<svg width="32" height="32" viewBox="0 0 32 32" fill="none" xmlns="http://www.w3.org/2000/svg">
<path d="M4.64572 4.24425C4.96425 3.96347 5.41448 3.79231 5.90081 3.79231H18.2981C18.7844 3.79231 19.2346 3.96347 19.5532 4.24425C19.8687 4.52232 20.0242 4.87758 20.0242 5.22457V9.99387C20.0242 10.4099 20.3615 10.7472 20.7775 10.7472C21.1936 10.7472 21.5309 10.4099 21.5309 9.99387V5.22457C21.5309 4.41225 21.164 3.65568 20.5495 3.114C19.938 2.57502 19.1269 2.28564 18.2981 2.28564H5.90081C5.07196 2.28564 4.26087 2.57502 3.64943 3.114C3.03492 3.65568 2.66802 4.41225 2.66802 5.22457L2.66797 25.0908C2.66797 25.361 2.81265 25.6105 3.04715 25.7447C3.28164 25.8789 3.57004 25.8772 3.80298 25.7403L7.05169 23.8312L9.1218 25.656C9.37464 25.8788 9.74477 25.9066 10.0281 25.724L10.7245 25.2751C11.0742 25.0497 11.175 24.5835 10.9496 24.2338C10.7242 23.8841 10.2579 23.7833 9.90824 24.0087L9.69068 24.149L7.63863 22.3401C7.3944 22.1248 7.0395 22.0908 6.75881 22.2558L4.17464 23.7744L4.17469 5.22457C4.17469 4.87758 4.33025 4.52232 4.64572 4.24425Z" fill="#141ED2"/>
<path d="M5.96261 8.46794C5.59442 8.46794 5.29594 8.76641 5.29594 9.1346C5.29594 9.50279 5.59442 9.80127 5.96261 9.80127H13.6758C14.044 9.80127 14.3425 9.50279 14.3425 9.1346C14.3425 8.76641 14.044 8.46794 13.6758 8.46794H5.96261Z" fill="#141ED2"/>
<path d="M5.29594 12.2954C5.29594 11.9272 5.59442 11.6287 5.96261 11.6287H9.81919C10.1874 11.6287 10.4859 11.9272 10.4859 12.2954C10.4859 12.6636 10.1874 12.9621 9.81919 12.9621H5.96261C5.59442 12.9621 5.29594 12.6636 5.29594 12.2954Z" fill="#141ED2"/>
<path fill-rule="evenodd" clip-rule="evenodd" d="M20.2009 17.4956C18.3225 17.4956 16.7629 18.9893 16.7629 20.8611C16.7629 22.7324 18.3187 24.2266 20.2009 24.2266C22.0831 24.2266 23.6389 22.7324 23.6389 20.8611C23.6389 18.9893 22.0793 17.4956 20.2009 17.4956ZM18.0962 20.8611C18.0962 19.7588 19.0253 18.829 20.2009 18.829C21.3765 18.829 22.3056 19.7588 22.3056 20.8611C22.3056 21.9639 21.3792 22.8932 20.2009 22.8932C19.0225 22.8932 18.0962 21.9639 18.0962 20.8611Z" fill="#141ED2"/>
<path fill-rule="evenodd" clip-rule="evenodd" d="M18.6089 12.0949C17.9283 12.0949 17.3093 12.5811 17.2144 13.286L17.0318 14.5222C17.008 14.6833 16.9057 14.8381 16.7155 14.9461C16.5206 15.0568 16.3215 15.0674 16.1916 15.0168L14.9491 14.5323L14.9407 14.5291C14.3148 14.2947 13.5584 14.5382 13.2173 15.1352L11.6301 17.8101C11.2649 18.4151 11.421 19.1909 11.9753 19.6154L11.977 19.6167L13.0202 20.4105C13.125 20.4902 13.2085 20.6451 13.2085 20.8611C13.2085 21.0775 13.125 21.2328 13.02 21.3129L11.9763 22.1092L11.9732 22.1116C11.4212 22.5379 11.281 23.2937 11.6211 23.8969L13.214 26.5806C13.5446 27.1599 14.2524 27.4407 14.9348 27.1964L14.944 27.1932L16.1844 26.7078C16.3198 26.6548 16.5137 26.6649 16.7087 26.7749C16.9003 26.8829 17.0046 27.0415 17.0269 27.1941L17.2078 28.4291C17.3016 29.1322 17.9159 29.6273 18.6024 29.6273H21.7896C22.4702 29.6273 23.0893 29.1411 23.1841 28.4361L23.3671 27.1969C23.3911 27.0349 23.492 26.8823 23.6786 26.7763C23.8764 26.6639 24.0788 26.6531 24.2099 26.7045L25.4484 27.1898L25.4654 27.1959C25.6116 27.2486 25.7795 27.2861 25.9645 27.2861C26.4598 27.2861 26.9339 27.0271 27.1825 26.5848L28.7764 23.9003L28.7835 23.8878C29.1247 23.2837 28.9742 22.5335 28.4261 22.109L27.3783 21.3117C27.2739 21.2323 27.19 21.0766 27.19 20.8611C27.19 20.6457 27.2739 20.4899 27.3783 20.4105L28.4215 19.6167L28.4254 19.6138C28.9771 19.1877 29.1159 18.4343 28.783 17.833L28.7783 17.8245L27.1885 15.1428C26.8558 14.5553 26.1411 14.2822 25.4652 14.5262L24.2155 15.0151C24.0818 15.0675 23.8895 15.0575 23.6961 14.9479C23.5011 14.8374 23.396 14.6776 23.3735 14.5251L23.1906 13.2894C23.0961 12.5826 22.4782 12.0949 21.7961 12.0949H18.6089ZM18.5343 13.4759L18.5358 13.4641L18.5371 13.4607C18.5385 13.4583 18.5417 13.4537 18.5479 13.4485C18.5605 13.4379 18.5812 13.4282 18.6089 13.4282H21.7961C21.8237 13.4282 21.844 13.4378 21.8563 13.4482C21.8681 13.4581 21.869 13.4666 21.869 13.4666L22.0545 14.7203C22.147 15.3458 22.5494 15.8306 23.0386 16.1078C23.51 16.375 24.1235 16.4829 24.7014 16.2568L25.9235 15.7786C25.9626 15.7657 25.9865 15.7709 25.9983 15.7752C26.0129 15.7807 26.0224 15.7899 26.0282 15.8004L27.6192 18.4839C27.6299 18.5055 27.6296 18.5217 27.6277 18.5314C27.6258 18.5413 27.6203 18.5506 27.6104 18.5585L26.571 19.3494C26.071 19.7298 25.8567 20.3171 25.8567 20.8611C25.8567 21.4052 26.0709 21.9924 26.571 22.3729L27.6108 23.164C27.6254 23.1758 27.6296 23.1865 27.6311 23.1937C27.6325 23.2006 27.6329 23.2121 27.6244 23.2287L26.0257 25.9216L26.0198 25.932L26.0179 25.9342L26.0147 25.937L26.012 25.939L26.0074 25.942C25.9969 25.948 25.9821 25.9527 25.9645 25.9527C25.9614 25.9527 25.9491 25.9523 25.924 25.9438L24.6961 25.4629C24.1136 25.2348 23.4886 25.3507 23.0199 25.617C22.5218 25.9 22.1392 26.3851 22.0481 27.0021L21.8643 28.2463L21.8627 28.2581L21.8614 28.2615C21.86 28.264 21.8569 28.2685 21.8507 28.2737C21.838 28.2843 21.8173 28.294 21.7896 28.294H18.6024C18.5769 28.294 18.5571 28.2851 18.544 28.274C18.5312 28.2631 18.5295 28.2525 18.5295 28.2525L18.3462 27.0009C18.2549 26.3774 17.8554 25.8909 17.3638 25.6136C16.891 25.3469 16.277 25.2398 15.6985 25.4661L14.4793 25.9432C14.4391 25.9563 14.4154 25.9507 14.4041 25.9465C14.3893 25.941 14.3786 25.9311 14.372 25.9193L12.7807 23.2383C12.7694 23.2165 12.7698 23.2009 12.7715 23.1925C12.7732 23.1837 12.7773 23.1755 12.7874 23.1674L13.8288 22.3729C14.3285 21.9917 14.5418 21.4053 14.5418 20.8611C14.5418 20.3167 14.328 19.7302 13.8276 19.3494L12.7857 18.5566C12.763 18.539 12.7629 18.5136 12.7717 18.4991L14.3674 15.8101L14.3735 15.7994C14.3735 15.7994 14.3841 15.7888 14.4061 15.7811C14.4359 15.7708 14.4601 15.7735 14.4715 15.7772L15.7073 16.259C16.2865 16.4848 16.9068 16.3707 17.3738 16.1056C17.8711 15.8233 18.2591 15.3379 18.3509 14.717L18.5343 13.4759Z" fill="#141ED2"/>
</svg>
