<svg width="32" height="32" viewBox="0 0 32 32" fill="none" xmlns="http://www.w3.org/2000/svg">
<path fill-rule="evenodd" clip-rule="evenodd" d="M7.60981 7.60971C4.54196 10.6776 4.54196 15.6515 7.60981 18.7194C10.6777 21.7872 15.6516 21.7872 18.7195 18.7194C21.7874 15.6515 21.7874 10.6776 18.7195 7.60971C15.6516 4.54185 10.6777 4.54185 7.60981 7.60971ZM6.58233 19.7469C2.94701 16.1116 2.94701 10.2175 6.58233 6.58222C10.2176 2.9469 16.1117 2.9469 19.747 6.58222C23.3823 10.2175 23.3823 16.1116 19.747 19.7469C16.1117 23.3822 10.2176 23.3822 6.58233 19.7469Z" fill="#141ED2" stroke="#141ED2" stroke-width="0.1"/>
<path fill-rule="evenodd" clip-rule="evenodd" d="M20.9043 20.9029C20.7092 21.098 20.7092 21.4142 20.9043 21.6093L24.95 25.655C25.1451 25.8501 25.4613 25.8501 25.6564 25.655C25.8514 25.46 25.8514 25.1437 25.6564 24.9486L21.6107 20.9029C21.4156 20.7078 21.0993 20.7078 20.9043 20.9029ZM19.8768 22.6368C19.1142 21.8743 19.1142 20.638 19.8768 19.8754C20.6393 19.1129 21.8756 19.1129 22.6381 19.8754L26.6839 23.9211C27.4464 24.6837 27.4464 25.92 26.6839 26.6825C25.9213 27.445 24.685 27.445 23.9225 26.6825L19.8768 22.6368Z" fill="#141ED2" stroke="#141ED2" stroke-width="0.1"/>
<path d="M19.5212 18.9443L18.9434 19.5222L20.0991 20.678L20.677 20.1001L19.5212 18.9443Z" fill="#141ED2"/>
<path fill-rule="evenodd" clip-rule="evenodd" d="M18.5352 19.5222L19.5241 18.5333L21.091 20.1002L20.1021 21.0891L18.5352 19.5222ZM19.3571 19.5222L20.1021 20.2671L20.269 20.1002L19.5241 19.3553L19.3571 19.5222Z" fill="#141ED2" stroke="#141ED2" stroke-width="0.1"/>
</svg>
