<svg width="32" height="32" viewBox="0 0 32 32" fill="none" xmlns="http://www.w3.org/2000/svg">
<path d="M26.9134 24.6251H8.59754C8.42299 24.6251 8.2617 24.5351 8.17442 24.389C8.08714 24.243 8.08714 24.063 8.17442 23.9169C8.2617 23.7708 8.42299 23.6808 8.59754 23.6808H25.7336L23.7992 21.8117C23.7077 21.7232 23.6562 21.6031 23.6562 21.478V15.7526C23.6559 12.2706 21.1437 9.25997 17.6226 8.52188C17.3976 8.47502 17.237 8.28281 17.2369 8.06042V6.71224C17.2369 6.29502 17.0066 5.90949 16.6327 5.70088C16.2588 5.49227 15.7982 5.49227 15.4243 5.70088C15.0504 5.90949 14.8201 6.29502 14.8201 6.71224V8.04908C14.8208 8.27326 14.6583 8.46702 14.4312 8.51275C10.8867 9.23176 8.34826 12.2525 8.34739 15.7526V21.478C8.34736 21.6031 8.29593 21.7232 8.2044 21.8117L5.43578 24.4872C5.31237 24.6066 5.13247 24.6532 4.96384 24.6096C4.79521 24.5659 4.66347 24.4387 4.61825 24.2758C4.57303 24.1128 4.6212 23.9389 4.74461 23.8196L7.3699 21.2825V15.7526C7.37054 11.949 10.0325 8.62698 13.8429 7.6745V6.71224C13.8429 5.54573 14.8214 4.6001 16.0285 4.6001C17.2356 4.6001 18.2141 5.54573 18.2141 6.71224V7.68804C21.9984 8.65878 24.6331 11.9688 24.6334 15.7526V21.2822L27.2587 23.8193C27.3982 23.9543 27.4399 24.1573 27.3644 24.3336C27.2888 24.5099 27.1109 24.625 26.9134 24.6251Z" fill="#141ED2" stroke="#141ED2" stroke-width="0.65"/>
<path d="M12.9922 24.6567C12.9922 24.4256 13.2045 24.2383 13.4663 24.2383C13.7282 24.2383 13.9405 24.4256 13.9405 24.6567C13.9405 25.7097 14.9079 26.5634 16.1013 26.5634C17.2947 26.5634 18.2621 25.7097 18.2621 24.6567C18.2621 24.4256 18.4744 24.2383 18.7362 24.2383C18.9981 24.2383 19.2104 24.4256 19.2104 24.6567C19.2085 26.1712 17.8176 27.3985 16.1013 27.4002C14.385 27.3985 12.9941 26.1712 12.9922 24.6567Z" fill="#141ED2" stroke="#141ED2" stroke-width="0.65"/>
</svg>
