<svg width="32" height="32" viewBox="0 0 32 32" fill="none" xmlns="http://www.w3.org/2000/svg">
<path d="M17.75 6.53647V3.49002C17.75 3.29476 17.9083 3.13647 18.1036 3.13647C18.1973 3.13647 18.2872 3.17372 18.3536 3.24002L21.6464 6.53292C21.7128 6.59922 21.75 6.68915 21.75 6.78292C21.75 6.97818 21.5917 7.13647 21.3964 7.13647H18.35C18.0186 7.13647 17.75 6.86784 17.75 6.53647Z" fill="#141ED2"/>
<path d="M18.5 6.38647H20.4395L18.5 4.44702V6.38647ZM22.5 6.78296C22.5 7.39247 22.0059 7.88643 21.3965 7.88647H18.3496C17.6043 7.88626 17.0002 7.28212 17 6.53687V3.48999C17 2.88048 17.4941 2.38652 18.1035 2.38647C18.3598 2.38647 18.6066 2.47582 18.8027 2.63647L18.8838 2.70972L22.1758 6.00171C22.3834 6.20899 22.5 6.4905 22.5 6.78296Z" fill="#141ED2"/>
<path d="M23.5 10.8679C23.5 11.2821 23.1642 11.6179 22.75 11.6179C22.3358 11.6179 22 11.2821 22 10.8679V7.30151L18.5059 3.88647H5.5V24.3865H15.75C16.1642 24.3865 16.5 24.7223 16.5 25.1365C16.5 25.5507 16.1642 25.8865 15.75 25.8865H5.4248C4.65389 25.8864 4 25.2708 4 24.4763V3.79663C4 3.00218 4.65386 2.38658 5.4248 2.38647H18.5332C18.9056 2.38654 19.2658 2.53129 19.5342 2.7937L23.0771 6.25659C23.346 6.51959 23.4999 6.88023 23.5 7.25952V10.8679Z" fill="#141ED2"/>
<path d="M26.5 18.6365C26.5 16.5654 24.8211 14.8865 22.75 14.8865C20.6789 14.8865 19 16.5654 19 18.6365C19 20.7075 20.6789 22.3865 22.75 22.3865C24.8211 22.3865 26.5 20.7075 26.5 18.6365ZM28 18.6365C28 21.536 25.6495 23.8865 22.75 23.8865C19.8505 23.8865 17.5 21.536 17.5 18.6365C17.5 15.737 19.8505 13.3865 22.75 13.3865C25.6495 13.3865 28 15.737 28 18.6365Z" fill="#141ED2"/>
<path d="M19.1367 22.1075C19.1367 21.6933 19.4725 21.3575 19.8867 21.3575C20.3009 21.3575 20.6367 21.6933 20.6367 22.1075V27.5704L22.3779 26.5763L22.4668 26.5333C22.6786 26.4468 22.9203 26.4611 23.1221 26.5763L24.8643 27.5704V22.1075C24.8643 21.6933 25.2 21.3575 25.6143 21.3575C26.0283 21.3577 26.3643 21.6934 26.3643 22.1075V28.8634C26.3643 29.1308 26.2215 29.3786 25.9902 29.5128C25.7591 29.6468 25.4742 29.6472 25.2422 29.5148L22.75 28.09L20.2588 29.5148C20.0268 29.6473 19.7419 29.6467 19.5107 29.5128C19.2795 29.3786 19.1367 29.1308 19.1367 28.8634V22.1075Z" fill="#141ED2"/>
<path d="M14.9447 10.6732C14.9447 10.5163 14.8175 10.3891 14.6606 10.3891H14.3473V9.72137C14.3473 9.50587 14.1726 9.33118 13.9571 9.33118C13.7416 9.33118 13.5669 9.50587 13.5669 9.72137V10.3891H11.8759C11.719 10.3891 11.5919 10.5163 11.5919 10.6732C11.5919 10.8301 11.719 10.9573 11.8759 10.9573H13.5669V13.5774C13.5669 13.5808 13.5642 13.5836 13.5607 13.5836C13.5586 13.5836 13.5566 13.5825 13.5555 13.5807C13.1988 13.0045 12.5926 12.6726 11.8809 12.6726C10.561 12.6726 9.58789 13.7403 9.58789 15.1509C9.58789 16.6007 10.5899 17.5607 11.8905 17.5607C12.6503 17.5607 13.2469 17.1995 13.5844 16.6233C13.5855 16.6214 13.5875 16.6203 13.5897 16.6203C13.5931 16.6203 13.5958 16.623 13.5958 16.6264V17.1261C13.5958 17.3337 13.7641 17.5019 13.9716 17.5019C14.1791 17.5019 14.3473 17.3337 14.3473 17.1261V10.9573H14.6606C14.8175 10.9573 14.9447 10.8301 14.9447 10.6732ZM11.9965 16.8358C11.0427 16.8358 10.3876 16.1109 10.3876 15.1509C10.3876 14.093 11.1101 13.3975 12.0061 13.3975C12.9503 13.3975 13.5958 14.1713 13.5958 15.1509C13.5958 16.1599 12.8829 16.8358 11.9965 16.8358ZM9.82875 18.5745C9.82875 18.7774 9.99322 18.9418 10.1961 18.9418H13.98C14.1829 18.9418 14.3473 18.7774 14.3473 18.5745C14.3473 18.3716 14.1829 18.2072 13.98 18.2072H10.1961C9.99322 18.2072 9.82875 18.3716 9.82875 18.5745Z" fill="#141ED2"/>
<path d="M9.67871 18.5743C9.6788 18.2887 9.91063 18.0568 10.1963 18.0568L10.1961 18.2072C9.99322 18.2072 9.82875 18.3716 9.82875 18.5745L9.83594 18.6486C9.86529 18.7921 9.97855 18.9054 10.1221 18.9347L10.1961 18.9418H13.98C14.1573 18.9416 14.3056 18.8158 14.3398 18.6486L14.3473 18.5745C14.3472 18.397 14.2212 18.2491 14.0537 18.215L13.98 18.2072L13.9805 18.0568C14.2659 18.057 14.497 18.2889 14.4971 18.5743C14.4971 18.8599 14.266 19.0917 13.9805 19.0919H10.1963C9.91057 19.0919 9.67871 18.8601 9.67871 18.5743ZM13.9805 18.0568L13.98 18.2072H10.1961L10.1963 18.0568H13.9805ZM13.4463 15.1505C13.4461 14.2361 12.8503 13.547 12.0059 13.547C11.1992 13.5471 10.5373 14.1693 10.5371 15.1505C10.5371 16.0365 11.134 16.6855 11.9961 16.6857L11.9965 16.8358L11.8213 16.8273C11.0207 16.7497 10.466 16.1407 10.3955 15.3282L10.3876 15.1509C10.3876 14.093 11.1101 13.3975 12.0061 13.3975L12.1797 13.4064C13.0284 13.495 13.5957 14.2328 13.5958 15.1509C13.5958 16.1599 12.8829 16.8358 11.9965 16.8358L11.9961 16.6857C12.7967 16.6857 13.4463 16.0796 13.4463 15.1505ZM13.5555 13.5807C13.221 13.0406 12.6671 12.7154 12.0127 12.6769L11.8809 12.6726C10.561 12.6726 9.58789 13.7403 9.58789 15.1509C9.58789 16.5101 10.4686 17.4392 11.6504 17.5499L11.8905 17.5607C12.6503 17.5607 13.2469 17.1995 13.5844 16.6233C13.5855 16.6214 13.5875 16.6203 13.5897 16.6203C13.5931 16.6203 13.5958 16.623 13.5958 16.6264V17.1261C13.5958 17.3076 13.7245 17.4591 13.8955 17.4943L13.9716 17.5019C14.153 17.5018 14.3047 17.3733 14.3398 17.2023L14.3473 17.1261V10.9573H14.6606C14.8175 10.9573 14.9447 10.8301 14.9447 10.6732C14.9447 10.5163 14.8175 10.3891 14.6606 10.3891L14.6602 10.2394C14.8998 10.2394 15.0946 10.4333 15.0947 10.673C15.0947 10.9127 14.8999 11.1075 14.6602 11.1075H14.4971V17.1261C14.4971 17.4164 14.262 17.6514 13.9717 17.6515C13.6813 17.6515 13.4463 17.4165 13.4463 17.1261V17.0587C13.0687 17.4674 12.5318 17.711 11.8906 17.7111C10.5044 17.7111 9.4375 16.6803 9.4375 15.1505C9.43768 13.6691 10.4669 12.5226 11.8809 12.5226C12.4881 12.5226 13.0278 12.7497 13.417 13.1573V11.1075H11.876C11.6362 11.1075 11.4414 10.9127 11.4414 10.673C11.4415 10.4333 11.6363 10.2394 11.876 10.2394L11.8759 10.3891L11.8184 10.3947C11.6891 10.4212 11.592 10.5361 11.5919 10.6732C11.5919 10.8103 11.6891 10.9247 11.8184 10.9513L11.8759 10.9573H13.5669L13.5674 13.5724L13.5605 13.5763L13.5607 13.5836L13.5555 13.5807ZM13.5605 13.5763L13.5674 13.5724L13.5669 13.5774L13.5607 13.5836L13.5605 13.5763ZM14.3473 9.72137C14.3473 9.50587 14.1726 9.33118 13.9571 9.33118C13.7416 9.33118 13.5669 9.50587 13.5669 9.72137V10.3891H11.8759L11.876 10.2394H13.417V9.7218C13.417 9.42349 13.6587 9.18084 13.957 9.18079C14.2554 9.18079 14.4971 9.42346 14.4971 9.7218V10.2394H14.6602L14.6606 10.3891H14.3473V9.72137Z" fill="#141ED2"/>
</svg>
