<svg width="32" height="32" viewBox="0 0 32 32" fill="none" xmlns="http://www.w3.org/2000/svg">
<path d="M21.3647 27.1781C21.0617 27.4808 20.5704 27.481 20.2674 27.1781C19.9645 26.8752 19.9647 26.3839 20.2674 26.0808L21.3647 27.1781ZM18.4839 15.7697C18.9125 15.7697 19.2599 16.1171 19.2599 16.5457C19.2599 16.9742 18.9125 17.3217 18.4839 17.3217H11.0345C10.606 17.3217 10.2586 16.9742 10.2586 16.5457C10.2586 16.1171 10.606 15.7697 11.0345 15.7697H18.4839ZM26.3988 15.9249V9.09603C26.3988 8.31396 26.0886 7.56353 25.5356 7.01052C24.9826 6.45751 24.2322 6.14722 23.4501 6.14722H8.55143C7.76939 6.14722 7.01899 6.45751 6.466 7.01052C5.91301 7.56353 5.60273 8.31396 5.60273 9.09603V19.0289C5.60273 19.8109 5.91301 20.5614 6.466 21.1144C7.01899 21.6674 7.76939 21.9777 8.55143 21.9777H11.0345C11.4631 21.9777 11.8105 22.3251 11.8105 22.7537V25.1072L15.614 22.8252C15.9815 22.6049 16.4581 22.7246 16.6785 23.092C16.8989 23.4593 16.7801 23.9359 16.413 24.1565L11.4334 27.1442C11.1939 27.2877 10.8957 27.2913 10.6526 27.1539C10.4093 27.0161 10.2586 26.7581 10.2586 26.4785V23.5297H8.55143C7.35778 23.5297 6.21276 23.0558 5.36872 22.2117C4.52469 21.3676 4.05078 20.2226 4.05078 19.0289V9.09603C4.05078 7.90234 4.52469 6.75727 5.36872 5.91321C6.21276 5.06914 7.35778 4.59521 8.55143 4.59521H23.4501C24.6438 4.59521 25.7888 5.06914 26.6328 5.91321C27.4769 6.75727 27.9508 7.90234 27.9508 9.09603V15.9249C27.9508 16.3534 27.6034 16.7009 27.1748 16.7009C26.7462 16.7009 26.3988 16.3534 26.3988 15.9249ZM20.967 10.8032C21.3956 10.8032 21.743 11.1507 21.743 11.5792C21.743 12.0078 21.3956 12.3552 20.967 12.3552H11.0345C10.606 12.3552 10.2586 12.0078 10.2586 11.5792C10.2586 11.1507 10.606 10.8032 11.0345 10.8032H20.967ZM26.8596 26.6288C26.8596 27.0574 26.5122 27.4048 26.0836 27.4048C25.6551 27.4048 25.3076 27.0574 25.3076 26.6288V23.235L21.3647 27.1781L20.8167 26.6288L20.2674 26.0808L24.2103 22.1377H20.8167C20.3882 22.1377 20.0409 21.7902 20.0407 21.3617C20.0407 20.9332 20.3881 20.5857 20.8167 20.5857H26.0836C26.5122 20.5857 26.8596 20.9332 26.8596 21.3617V26.6288Z" fill="black"/>
</svg>
