<svg width="32" height="32" viewBox="0 0 32 32" fill="none" xmlns="http://www.w3.org/2000/svg">
<path d="M24.9619 18.6489V7.17139C24.9619 7.13617 24.9478 7.10254 24.9229 7.07764C24.8979 7.05274 24.8643 7.03857 24.8291 7.03857H12.4688C12.4336 7.03861 12.3999 7.05275 12.375 7.07764C12.3501 7.10254 12.336 7.13618 12.3359 7.17139V8.0542C12.3359 8.46841 12.0002 8.8042 11.5859 8.8042C11.1718 8.80417 10.8359 8.46839 10.8359 8.0542V7.17139C10.836 6.73836 11.0083 6.3233 11.3145 6.01709C11.6206 5.7109 12.0357 5.53861 12.4688 5.53857H24.8291C25.2622 5.53857 25.6772 5.71089 25.9834 6.01709C26.2896 6.3233 26.4619 6.73835 26.4619 7.17139V18.6489C26.4619 19.0819 26.2896 19.497 25.9834 19.8032C25.6772 20.1094 25.2621 20.2817 24.8291 20.2817H10.7031C10.2889 20.2817 9.95316 19.9459 9.95312 19.5317C9.95312 19.1175 10.2889 18.7817 10.7031 18.7817H24.8291C24.8643 18.7817 24.8979 18.7676 24.9229 18.7427C24.9477 18.7178 24.9619 18.6841 24.9619 18.6489Z" fill="black"/>
<path d="M12.8213 16.3525C13.1142 16.0597 13.5889 16.0597 13.8818 16.3525C14.1747 16.6454 14.1747 17.1202 13.8818 17.4131L11.7637 19.5312L13.8818 21.6494C14.1747 21.9423 14.1746 22.4171 13.8818 22.71C13.5889 23.0029 13.1142 23.0029 12.8213 22.71L10.1729 20.0615C9.88005 19.7686 9.87999 19.2938 10.1729 19.001L12.8213 16.3525Z" fill="black"/>
<path d="M5.53906 24.8291V13.3516C5.53908 12.9185 5.71137 12.5035 6.01758 12.1973C6.32379 11.8911 6.73883 11.7188 7.17188 11.7188H21.2979C21.7121 11.7188 22.0479 12.0545 22.0479 12.4688C22.0479 12.883 21.7121 13.2188 21.2979 13.2188H7.17188C7.13666 13.2188 7.10303 13.2329 7.07812 13.2578C7.05322 13.2827 7.03908 13.3163 7.03906 13.3516V24.8291C7.03909 24.8643 7.05324 24.898 7.07812 24.9229C7.10303 24.9477 7.13667 24.9619 7.17188 24.9619H19.5322C19.5674 24.9619 19.6011 24.9477 19.626 24.9229C19.6509 24.898 19.665 24.8643 19.665 24.8291V23.9463C19.665 23.5321 20.0008 23.1963 20.415 23.1963C20.8293 23.1963 21.165 23.5321 21.165 23.9463V24.8291C21.165 25.2621 20.9927 25.6772 20.6865 25.9834C20.3803 26.2896 19.9653 26.4619 19.5322 26.4619H7.17188C6.73885 26.4619 6.32378 26.2896 6.01758 25.9834C5.71138 25.6772 5.53909 25.2621 5.53906 24.8291Z" fill="black"/>
<path d="M18.1201 9.28955C18.413 8.99666 18.8878 8.99666 19.1807 9.28955L21.8291 11.938C22.122 12.2309 22.122 12.7056 21.8291 12.9985L19.1807 15.647C18.8878 15.9399 18.413 15.9399 18.1201 15.647C17.8274 15.3541 17.8273 14.8793 18.1201 14.5864L20.2383 12.4683L18.1201 10.3501C17.8272 10.0572 17.8272 9.58244 18.1201 9.28955Z" fill="black"/>
</svg>
