<svg width="32" height="32" viewBox="0 0 32 32" fill="none" xmlns="http://www.w3.org/2000/svg">
<path fill-rule="evenodd" clip-rule="evenodd" d="M23.666 23.25C24.0802 23.25 24.416 23.5858 24.416 24V27C24.416 27.4142 24.0802 27.75 23.666 27.75C23.2518 27.75 22.916 27.4142 22.916 27V24C22.916 23.5858 23.2518 23.25 23.666 23.25Z" fill="#141ED2"/>
<path fill-rule="evenodd" clip-rule="evenodd" d="M7.66602 23.25C8.08023 23.25 8.41602 23.5858 8.41602 24V27C8.41602 27.4142 8.08023 27.75 7.66602 27.75C7.2518 27.75 6.91602 27.4142 6.91602 27V24C6.91602 23.5858 7.2518 23.25 7.66602 23.25Z" fill="#141ED2"/>
<path fill-rule="evenodd" clip-rule="evenodd" d="M4.66602 5.75C4.52794 5.75 4.41602 5.86193 4.41602 6V23C4.41602 23.1381 4.52794 23.25 4.66602 23.25H26.666C26.8041 23.25 26.916 23.1381 26.916 23V6C26.916 5.86193 26.8041 5.75 26.666 5.75H4.66602ZM2.91602 6C2.91602 5.0335 3.69952 4.25 4.66602 4.25H26.666C27.6325 4.25 28.416 5.0335 28.416 6V23C28.416 23.9665 27.6325 24.75 26.666 24.75H4.66602C3.69952 24.75 2.91602 23.9665 2.91602 23V6Z" fill="#141ED2"/>
<path d="M18.666 17C19.7706 17 20.666 16.1046 20.666 15C20.666 13.8954 19.7706 13 18.666 13C17.5614 13 16.666 13.8954 16.666 15C16.666 16.1046 17.5614 17 18.666 17Z" fill="#141ED2"/>
<path fill-rule="evenodd" clip-rule="evenodd" d="M17.916 15C17.916 14.5858 18.2518 14.25 18.666 14.25H27.666C28.0802 14.25 28.416 14.5858 28.416 15C28.416 15.4142 28.0802 15.75 27.666 15.75H18.666C18.2518 15.75 17.916 15.4142 17.916 15Z" fill="#141ED2"/>
<path fill-rule="evenodd" clip-rule="evenodd" d="M18.666 10.75C16.3188 10.75 14.416 12.6528 14.416 15C14.416 17.3472 16.3188 19.25 18.666 19.25C21.0132 19.25 22.916 17.3472 22.916 15C22.916 12.6528 21.0132 10.75 18.666 10.75ZM12.916 15C12.916 11.8244 15.4904 9.25 18.666 9.25C21.8417 9.25 24.416 11.8244 24.416 15C24.416 18.1756 21.8417 20.75 18.666 20.75C15.4904 20.75 12.916 18.1756 12.916 15Z" fill="#141ED2"/>
</svg>
