<svg width="32" height="32" viewBox="0 0 32 32" fill="none" xmlns="http://www.w3.org/2000/svg">
<path d="M2.25977 21.8013C2.25977 21.3871 2.59555 21.0513 3.00977 21.0513C3.42398 21.0513 3.75977 21.3871 3.75977 21.8013V26.3647H8.32422C8.73822 26.365 9.07418 26.7007 9.07422 27.1147C9.07422 27.5288 8.73824 27.8645 8.32422 27.8647H3.00977C2.59555 27.8647 2.25977 27.529 2.25977 27.1147V21.8013ZM28.2402 21.8013C28.2402 21.3871 28.576 21.0513 28.9902 21.0513C29.4043 21.0515 29.7402 21.3872 29.7402 21.8013V27.1147C29.7402 27.5288 29.4043 27.8645 28.9902 27.8647H23.6758C23.2616 27.8647 22.9258 27.529 22.9258 27.1147C22.9258 26.7006 23.2616 26.3647 23.6758 26.3647H28.2402V21.8013ZM7.47656 21.6694H24.5225V13.897H7.47656V21.6694ZM16.7139 18.8169C17.128 18.817 17.4639 19.1527 17.4639 19.5669C17.4636 19.9808 17.1278 20.3168 16.7139 20.3169H15.2871C14.8731 20.3169 14.5374 19.9809 14.5371 19.5669C14.5371 19.1527 14.8729 18.8169 15.2871 18.8169H16.7139ZM22.4199 18.8169C22.834 18.8171 23.1699 19.1528 23.1699 19.5669C23.1697 19.9808 22.8338 20.3167 22.4199 20.3169H19.5664C19.1524 20.3169 18.8167 19.9809 18.8164 19.5669C18.8164 19.1527 19.1522 18.8169 19.5664 18.8169H22.4199ZM7.47656 12.397H24.5225V10.3306H7.47656V12.397ZM2.25977 10.1997V4.88525C2.25977 4.47104 2.59555 4.13525 3.00977 4.13525H8.32422C8.73824 4.13548 9.07422 4.47118 9.07422 4.88525C9.07422 5.29933 8.73824 5.63503 8.32422 5.63525H3.75977V10.1997C3.75954 10.6137 3.42384 10.9497 3.00977 10.9497C2.59569 10.9497 2.25999 10.6137 2.25977 10.1997ZM28.2402 10.1997V5.63525H23.6758C23.2616 5.63525 22.9258 5.29947 22.9258 4.88525C22.9258 4.47104 23.2616 4.13525 23.6758 4.13525H28.9902C29.4043 4.13548 29.7402 4.47118 29.7402 4.88525V10.1997C29.74 10.6136 29.4041 10.9495 28.9902 10.9497C28.5762 10.9497 28.2405 10.6137 28.2402 10.1997ZM26.0225 21.7065C26.0224 22.5146 25.3667 23.1694 24.5586 23.1694H7.43945C6.63154 23.1692 5.97665 22.5145 5.97656 21.7065V10.2935C5.97665 9.48551 6.63154 8.83079 7.43945 8.83057H24.5586C25.3667 8.83057 26.0224 9.48537 26.0225 10.2935V21.7065Z" fill="black"/>
</svg>
