<svg width="32" height="32" viewBox="0 0 32 32" fill="none" xmlns="http://www.w3.org/2000/svg">
<path fill-rule="evenodd" clip-rule="evenodd" d="M12.4191 14.79C13.4047 14.3588 14.6926 14.1333 15.9995 14.1333C17.3064 14.1333 18.5942 14.3588 19.5799 14.79C20.5031 15.1939 21.3661 15.8842 21.3661 16.875C21.3661 17.8658 20.5031 18.556 19.5799 18.96C18.5942 19.3912 17.3064 19.6166 15.9995 19.6166C14.6926 19.6166 13.4047 19.3912 12.4191 18.96C11.4958 18.556 10.6328 17.8658 10.6328 16.875C10.6328 15.8842 11.4958 15.1939 12.4191 14.79ZM15.9995 15.5333C14.831 15.5333 13.7449 15.7381 12.9802 16.0726C12.1531 16.4345 12.0328 16.7828 12.0328 16.875C12.0328 16.9671 12.1531 17.3155 12.9802 17.6773C13.7449 18.0119 14.831 18.2166 15.9995 18.2166C17.1679 18.2166 18.2541 18.0119 19.0187 17.6773C19.8458 17.3155 19.9661 16.9671 19.9661 16.875C19.9661 16.7828 19.8458 16.4345 19.0187 16.0726C18.2541 15.7381 17.1679 15.5333 15.9995 15.5333Z" fill="black"/>
<path fill-rule="evenodd" clip-rule="evenodd" d="M11.3328 15.8833C11.7194 15.8833 12.0328 16.1967 12.0328 16.5833V20.9583C12.0328 21.0085 12.0531 21.1115 12.2027 21.2663C12.3556 21.4244 12.6105 21.5988 12.9799 21.7605C13.7166 22.0829 14.7835 22.3 15.9995 22.3C17.2154 22.3 18.2823 22.0829 19.019 21.7605C19.3884 21.5988 19.6434 21.4244 19.7962 21.2663C19.9458 21.1115 19.9661 21.0085 19.9661 20.9583V16.5833C19.9661 16.1967 20.2795 15.8833 20.6661 15.8833C21.0527 15.8833 21.3661 16.1967 21.3661 16.5833V20.9583C21.3661 21.4716 21.1254 21.9056 20.8029 22.2393C20.4836 22.5696 20.0553 22.8352 19.5803 23.043C18.6283 23.4597 17.3619 23.7 15.9995 23.7C14.6371 23.7 13.3707 23.4597 12.4186 23.043C11.9436 22.8352 11.5154 22.5696 11.1961 22.2393C10.8736 21.9056 10.6328 21.4716 10.6328 20.9583V16.5833C10.6328 16.1967 10.9462 15.8833 11.3328 15.8833Z" fill="black"/>
<path fill-rule="evenodd" clip-rule="evenodd" d="M18.3328 4.7998C18.7194 4.7998 19.0328 5.11321 19.0328 5.4998V10.1665C19.0328 10.2902 19.082 10.4089 19.1695 10.4965C19.257 10.584 19.3757 10.6331 19.4995 10.6331H24.1661C24.5527 10.6331 24.8661 10.9465 24.8661 11.3331C24.8661 11.7197 24.5527 12.0331 24.1661 12.0331H19.4995C19.0044 12.0331 18.5296 11.8365 18.1795 11.4864C17.8295 11.1363 17.6328 10.6615 17.6328 10.1665V5.4998C17.6328 5.11321 17.9462 4.7998 18.3328 4.7998Z" fill="black"/>
<path fill-rule="evenodd" clip-rule="evenodd" d="M10.1661 6.1998C9.73296 6.1998 9.31751 6.37189 9.0112 6.6782C8.7049 6.98451 8.53281 7.39995 8.53281 7.83314V24.1665C8.53281 24.5997 8.7049 25.0151 9.0112 25.3214C9.31751 25.6277 9.73296 25.7998 10.1661 25.7998H21.8328C22.266 25.7998 22.6814 25.6277 22.9878 25.3214C23.2941 25.0151 23.4661 24.5997 23.4661 24.1665V11.6231L18.0429 6.1998H10.1661ZM8.02126 5.68825C8.59012 5.11939 9.36166 4.7998 10.1661 4.7998H18.3328C18.5185 4.7998 18.6965 4.87355 18.8278 5.00483L24.6611 10.8382C24.7924 10.9694 24.8661 11.1475 24.8661 11.3331V24.1665C24.8661 24.971 24.5466 25.7425 23.9777 26.3114C23.4088 26.8802 22.6373 27.1998 21.8328 27.1998H10.1661C9.36166 27.1998 8.59012 26.8802 8.02126 26.3114C7.45239 25.7425 7.13281 24.971 7.13281 24.1665V7.83314C7.13281 7.02865 7.45239 6.25711 8.02126 5.68825Z" fill="black"/>
</svg>
