<svg width="32" height="32" viewBox="0 0 32 32" fill="none" xmlns="http://www.w3.org/2000/svg">
<path d="M22.5 26.8911V21.7808L20.2227 23.9888C19.9252 24.277 19.4504 24.2695 19.1621 23.9722C18.8739 23.6748 18.8804 23.1999 19.1777 22.9116L22.7285 19.4712L22.8447 19.3784C23.132 19.1935 23.518 19.2246 23.7725 19.4712L27.3223 22.9116C27.6196 23.1998 27.6269 23.6747 27.3389 23.9722C27.0506 24.2696 26.5758 24.277 26.2783 23.9888L24 21.7798V26.8911C24 27.3053 23.6642 27.6411 23.25 27.6411C22.8359 27.641 22.5 27.3053 22.5 26.8911ZM13.7832 4.3501C18.0101 4.3501 20.2848 5.22515 21.5107 6.24365C22.1275 6.75606 22.4595 7.28983 22.6338 7.72412C22.72 7.93895 22.7658 8.12502 22.79 8.26611C22.8021 8.33637 22.8088 8.39562 22.8125 8.44189C22.8144 8.46509 22.8148 8.48594 22.8154 8.50244C22.8157 8.51043 22.8163 8.51759 22.8164 8.52393V8.53955C22.8125 8.54039 22.7603 8.5415 22.0664 8.5415H22.8164V15.4224H22.0664C22.7667 15.4224 22.8133 15.4235 22.8164 15.4243V15.439C22.8163 15.4455 22.8158 15.4532 22.8154 15.4614C22.8148 15.4779 22.8144 15.4979 22.8125 15.521C22.8088 15.5674 22.8022 15.6272 22.79 15.6978C22.7658 15.8389 22.72 16.025 22.6338 16.2397C22.4595 16.6739 22.1272 17.207 21.5107 17.7192C20.2848 18.7377 18.0101 19.6128 13.7832 19.6128C9.7682 19.6128 7.51645 18.8216 6.25 17.8696V22.2827L6.25488 22.3247C6.26297 22.3717 6.28199 22.4553 6.3252 22.563C6.40983 22.7738 6.59619 23.1001 7.01465 23.4478C7.85955 24.1497 9.72688 24.9946 13.7832 24.9946C14.1973 24.9946 14.533 25.3306 14.5332 25.7446C14.5332 26.1588 14.1974 26.4946 13.7832 26.4946C9.55644 26.4946 7.28257 25.6195 6.05664 24.6011C5.44004 24.0888 5.1079 23.5558 4.93359 23.1216C4.84745 22.9069 4.80163 22.7207 4.77734 22.5796C4.76521 22.5091 4.7586 22.4492 4.75488 22.4028C4.75302 22.3797 4.75162 22.3598 4.75098 22.3433C4.75066 22.335 4.75012 22.3273 4.75 22.3208V22.3062C4.75 22.3052 4.75 22.3042 5.5 22.3042H4.75V8.5415H5.5C4.78774 8.5415 4.7518 8.54041 4.75 8.53955V8.52393C4.75012 8.51759 4.75067 8.51043 4.75098 8.50244C4.75162 8.48594 4.75302 8.46509 4.75488 8.44189C4.75861 8.3956 4.76526 8.33639 4.77734 8.26611C4.80161 8.12498 4.84737 7.93902 4.93359 7.72412C5.10783 7.28988 5.43907 6.756 6.05566 6.24365C7.28158 5.22516 9.55637 4.35012 13.7832 4.3501ZM21.3164 10.9888C20.0499 11.9406 17.7978 12.7319 13.7832 12.7319C9.76854 12.7319 7.5165 11.9406 6.25 10.9888V15.4009L6.25488 15.4429C6.26297 15.4899 6.28199 15.5735 6.3252 15.6812C6.40983 15.892 6.59619 16.2183 7.01465 16.5659C7.85955 17.2678 9.72688 18.1128 13.7832 18.1128C17.8394 18.1128 19.7068 17.2678 20.5518 16.5659C20.9702 16.2183 21.1566 15.892 21.2412 15.6812C21.2844 15.5735 21.3034 15.4899 21.3115 15.4429C21.3143 15.4267 21.3156 15.4148 21.3164 15.4077V10.9888ZM13.7832 5.8501C9.72721 5.85012 7.85964 6.69506 7.01465 7.39697C6.59603 7.74477 6.40979 8.07186 6.3252 8.28271C6.28208 8.3902 6.26298 8.47297 6.25488 8.52002C6.25355 8.52778 6.25276 8.53478 6.25195 8.54053C6.25278 8.54647 6.25348 8.55383 6.25488 8.56201C6.26299 8.60906 6.28208 8.69184 6.3252 8.79932C6.40978 9.0101 6.59613 9.33638 7.01465 9.68408C7.85955 10.3859 9.72687 11.2319 13.7832 11.2319C17.8396 11.2319 19.7068 10.386 20.5518 9.68408C20.9704 9.33634 21.1566 9.01013 21.2412 8.79932C21.2843 8.69184 21.3034 8.60908 21.3115 8.56201C21.3132 8.55248 21.3136 8.54407 21.3145 8.5376C21.3137 8.53251 21.3126 8.52651 21.3115 8.52002C21.3034 8.47295 21.2843 8.39021 21.2412 8.28271C21.1566 8.07186 20.9704 7.74477 20.5518 7.39697C19.7067 6.69508 17.839 5.8501 13.7832 5.8501Z" fill="#141ED2"/>
</svg>
