<svg width="32" height="32" viewBox="0 0 32 32" fill="none" xmlns="http://www.w3.org/2000/svg">
<path d="M27.9043 12.6406C27.9043 12.0053 27.3278 11.3907 26.4883 11.3906H4.82031C3.98075 11.3907 3.4043 12.0053 3.4043 12.6406V21.8906H6.9043V19.6406C6.9043 19.2264 7.24008 18.8906 7.6543 18.8906H23.6543C24.0685 18.8906 24.4043 19.2264 24.4043 19.6406V21.8906H27.9043V12.6406ZM8.4043 26.8906H22.9043V20.3906H8.4043V26.8906ZM29.4043 22.6406C29.4043 23.0548 29.0685 23.3906 28.6543 23.3906H24.4043V27.6406C24.4043 28.0548 24.0685 28.3906 23.6543 28.3906H7.6543C7.24008 28.3906 6.9043 28.0548 6.9043 27.6406V23.3906H2.6543C2.24008 23.3906 1.9043 23.0548 1.9043 22.6406V12.6406C1.9043 11.0661 3.2676 9.89074 4.82031 9.89062H6.9043V5.64062C6.9043 5.22641 7.24008 4.89062 7.6543 4.89062H16.6543C17.0685 4.89062 17.4043 5.22641 17.4043 5.64062C17.4043 6.05484 17.0685 6.39062 16.6543 6.39062H8.4043V9.89062H22.9043V6.39062H20.9043C20.4901 6.39062 20.1543 6.05484 20.1543 5.64062C20.1543 5.22641 20.4901 4.89062 20.9043 4.89062H23.6543C24.0685 4.89062 24.4043 5.22641 24.4043 5.64062V9.89062H26.4883C28.041 9.89074 29.4043 11.0661 29.4043 12.6406V22.6406Z" fill="black"/>
<path d="M23.1543 16.6406C23.9827 16.6406 24.6543 15.9691 24.6543 15.1406C24.6543 14.3122 23.9827 13.6406 23.1543 13.6406C22.3259 13.6406 21.6543 14.3122 21.6543 15.1406C21.6543 15.9691 22.3259 16.6406 23.1543 16.6406Z" fill="black"/>
</svg>
