<svg width="32" height="32" viewBox="0 0 32 32" fill="none" xmlns="http://www.w3.org/2000/svg">
<path fill-rule="evenodd" clip-rule="evenodd" d="M7.58594 6.27335C7.58594 4.75273 8.81865 3.52002 10.3393 3.52002H20.8486C22.3692 3.52002 23.6019 4.75273 23.6019 6.27335V25.851C23.6019 27.3716 22.3692 28.6043 20.8486 28.6043H10.3393C8.81865 28.6043 7.58594 27.3716 7.58594 25.851V6.27335ZM10.3393 5.02669C9.65076 5.02669 9.0926 5.58484 9.0926 6.27335V25.851C9.0926 26.5395 9.65076 27.0976 10.3393 27.0976H20.8486C21.5371 27.0976 22.0952 26.5395 22.0952 25.851V6.27335C22.0952 5.58484 21.5371 5.02669 20.8486 5.02669H10.3393ZM13.2222 24.8774C13.2222 24.4614 13.5595 24.1241 13.9755 24.1241H17.2123C17.6284 24.1241 17.9656 24.4614 17.9656 24.8774C17.9656 25.2935 17.6284 25.6308 17.2123 25.6308H13.9755C13.5595 25.6308 13.2222 25.2935 13.2222 24.8774Z" fill="#141ED2"/>
</svg>
