<svg width="32" height="32" viewBox="0 0 32 32" fill="none" xmlns="http://www.w3.org/2000/svg">
<path fill-rule="evenodd" clip-rule="evenodd" d="M4.81978 6.0771C5.49975 5.39714 6.42198 5.01514 7.38359 5.01514H10.076C10.4924 5.01514 10.8299 5.35266 10.8299 5.76901C10.8299 6.18537 10.4924 6.52289 10.076 6.52289H7.38359C6.82186 6.52289 6.28313 6.74604 5.88592 7.14324C5.48871 7.54045 5.26556 8.07918 5.26556 8.64092C5.26556 9.20265 5.48871 9.74138 5.88592 10.1386C6.28313 10.5358 6.82186 10.7589 7.38359 10.7589H10.3195C10.7359 10.7589 11.0734 11.0965 11.0734 11.5128C11.0734 11.9292 10.7359 12.2667 10.3195 12.2667H7.38359C6.61861 12.2667 5.87856 12.025 5.26556 11.5838V25.8724C5.26556 26.4341 5.48871 26.9728 5.88592 27.37C6.28313 27.7672 6.82186 27.9904 7.38359 27.9904H24.615C24.7959 27.9904 24.9694 27.9185 25.0973 27.7906C25.2252 27.6627 25.2971 27.4892 25.2971 27.3083V23.0004C25.2971 22.5841 25.6346 22.2466 26.051 22.2466C26.4673 22.2466 26.8049 22.5841 26.8049 23.0004V27.3083C26.8049 27.8891 26.5742 28.4461 26.1635 28.8568C25.7528 29.2674 25.1958 29.4981 24.615 29.4981H7.38359C6.42198 29.4981 5.49974 29.1161 4.81978 28.4362C4.13981 27.7562 3.75781 26.834 3.75781 25.8724V8.64092C3.75781 7.6793 4.13981 6.75707 4.81978 6.0771ZM19.3699 5.76901C19.3699 5.35266 19.7074 5.01514 20.1237 5.01514H21.7431C22.3239 5.01514 22.8809 5.24585 23.2916 5.65652C23.7022 6.0672 23.933 6.62419 23.933 7.20496V10.7589H24.615C25.1958 10.7589 25.7528 10.9897 26.1635 11.4003C26.5742 11.811 26.8049 12.368 26.8049 12.9488V17.2566C26.8049 17.673 26.4673 18.0105 26.051 18.0105C25.6346 18.0105 25.2971 17.673 25.2971 17.2566V12.9488C25.2971 12.7679 25.2252 12.5944 25.0973 12.4665C24.9694 12.3386 24.7959 12.2667 24.615 12.2667H20.1237C19.7074 12.2667 19.3699 11.9292 19.3699 11.5128C19.3699 11.0965 19.7074 10.7589 20.1237 10.7589H22.4252V7.20496C22.4252 7.02407 22.3533 6.85058 22.2254 6.72266C22.0975 6.59475 21.924 6.52289 21.7431 6.52289H20.1237C19.7074 6.52289 19.3699 6.18537 19.3699 5.76901Z" fill="#141ED2"/>
<path fill-rule="evenodd" clip-rule="evenodd" d="M21.743 18.0102C21.1812 18.0102 20.6425 18.2333 20.2453 18.6305C19.8481 19.0278 19.6249 19.5665 19.6249 20.1282C19.6249 20.69 19.8481 21.2287 20.2453 21.6259C20.6425 22.0231 21.1812 22.2463 21.743 22.2463H26.7329V18.0102H21.743ZM19.1792 17.5644C19.8591 16.8844 20.7814 16.5024 21.743 16.5024H27.4868C27.9031 16.5024 28.2407 16.84 28.2407 17.2563V23.0001C28.2407 23.4165 27.9031 23.754 27.4868 23.754H21.743C20.7814 23.754 19.8591 23.372 19.1792 22.692C18.4992 22.0121 18.1172 21.0898 18.1172 20.1282C18.1172 19.1666 18.4992 18.2444 19.1792 17.5644Z" fill="#141ED2"/>
<path fill-rule="evenodd" clip-rule="evenodd" d="M15.4609 2.50195C15.8773 2.50195 16.2148 2.83947 16.2148 3.25583V13.2683C16.2148 13.6847 15.8773 14.0222 15.4609 14.0222C15.0446 14.0222 14.707 13.6847 14.707 13.2683V3.25583C14.707 2.83947 15.0446 2.50195 15.4609 2.50195Z" fill="#141ED2"/>
<path fill-rule="evenodd" clip-rule="evenodd" d="M18.6864 10.0421C18.9808 10.3365 18.9808 10.8138 18.6864 11.1082L15.994 13.8007C15.6996 14.0951 15.2222 14.0951 14.9278 13.8007C14.6334 13.5063 14.6334 13.029 14.9278 12.7345L17.6203 10.0421C17.9147 9.74769 18.392 9.74769 18.6864 10.0421Z" fill="#141ED2"/>
<path fill-rule="evenodd" clip-rule="evenodd" d="M12.2345 10.0421C12.5289 9.74769 13.0062 9.74769 13.3006 10.0421L15.9931 12.7345C16.2875 13.029 16.2875 13.5063 15.9931 13.8007C15.6987 14.0951 15.2213 14.0951 14.9269 13.8007L12.2345 11.1082C11.9401 10.8138 11.9401 10.3365 12.2345 10.0421Z" fill="#141ED2"/>
</svg>
