<svg width="32" height="32" viewBox="0 0 32 32" fill="none" xmlns="http://www.w3.org/2000/svg">
<path d="M3.13672 5.33341C3.13672 4.91736 3.474 4.58008 3.89005 4.58008H17.2858C23.5929 4.58008 28.7058 9.69299 28.7058 16.0001C28.7058 22.3072 23.5929 27.4201 17.2858 27.4201C10.9788 27.4201 5.86585 22.3072 5.86585 16.0001C5.86585 14.7388 6.0706 13.5238 6.44928 12.3874C6.58081 11.9927 7.00741 11.7794 7.40213 11.9109C7.79685 12.0424 8.0102 12.469 7.87867 12.8637C7.55053 13.8485 7.37251 14.9027 7.37251 16.0001C7.37251 21.4751 11.8109 25.9134 17.2858 25.9134C22.7608 25.9134 27.1992 21.4751 27.1992 16.0001C27.1992 10.5251 22.7608 6.08674 17.2858 6.08674H3.89005C3.474 6.08674 3.13672 5.74947 3.13672 5.33341Z" fill="#141ED2"/>
<path d="M5.05339 9.17033C5.05339 8.75427 5.39066 8.41699 5.80672 8.41699L10.7572 8.41699C11.1733 8.41699 11.5106 8.75427 11.5106 9.17033C11.5106 9.58638 11.1733 9.92366 10.7572 9.92366L5.80672 9.92366C5.39066 9.92366 5.05339 9.58638 5.05339 9.17033Z" fill="#141ED2"/>
<path d="M18.0336 10.0001C18.0336 9.58402 17.6963 9.24675 17.2803 9.24675C16.8642 9.24675 16.5269 9.58402 16.5269 10.0001V10.651C15.6081 10.7705 14.8994 11.0711 14.3839 11.5096C13.6976 12.0932 13.4336 12.8548 13.4336 13.5201C13.4336 14.331 13.5284 15.1499 14.2787 15.7452C14.6139 16.0112 15.0352 16.1949 15.5199 16.3426C16.008 16.4913 16.6098 16.6176 17.3397 16.7426L17.3422 16.743C18.2212 16.8906 18.7997 17.099 19.1508 17.3708C19.4511 17.6032 19.6336 17.9173 19.6336 18.4801C19.6336 18.6141 19.6281 18.9466 19.4121 19.2445C19.2268 19.5 18.7585 19.9001 17.4669 19.9001L17.4213 19.8999C17.3756 19.8913 17.3285 19.8867 17.2803 19.8867C17.245 19.8867 17.2103 19.8892 17.1763 19.8939C16.2026 19.8511 15.6557 19.5944 15.36 19.3429C15.0429 19.0732 14.9403 18.7481 14.9403 18.4801C14.9403 18.064 14.603 17.7267 14.1869 17.7267C13.7709 17.7267 13.4336 18.064 13.4336 18.4801C13.4336 19.1454 13.6976 19.907 14.3839 20.4906C14.8994 20.9291 15.6081 21.2297 16.5269 21.3491V22.0001C16.5269 22.4161 16.8642 22.7534 17.2803 22.7534C17.6963 22.7534 18.0336 22.4161 18.0336 22.0001V21.3839C19.3301 21.2752 20.1534 20.7887 20.6318 20.129C21.1405 19.4274 21.1403 18.6814 21.1403 18.4859V18.4801C21.1403 17.4962 20.7761 16.7236 20.0731 16.1794C19.4211 15.6747 18.5401 15.4165 17.5929 15.2573C16.8834 15.1358 16.3556 15.0221 15.9589 14.9013C15.5587 14.7794 15.34 14.664 15.2152 14.565C15.0454 14.4302 14.9403 14.2558 14.9403 13.5201C14.9403 13.2521 15.0429 12.927 15.36 12.6573C15.6557 12.4057 16.2026 12.1491 17.1763 12.1063C17.2103 12.111 17.245 12.1134 17.2803 12.1134C17.3285 12.1134 17.3756 12.1089 17.4213 12.1002L17.4669 12.1001C18.5555 12.1001 19.0501 12.4436 19.2881 12.7159C19.5498 13.0153 19.6116 13.3561 19.6236 13.4837C19.6624 13.898 20.0297 14.2023 20.4439 14.1635C20.8582 14.1246 21.1625 13.7573 21.1236 13.3431C21.0956 13.0441 20.9707 12.3515 20.4225 11.7243C19.929 11.1597 19.1625 10.7276 18.0336 10.6196V10.0001Z" fill="#141ED2"/>
</svg>
