<svg width="32" height="32" viewBox="0 0 32 32" fill="none" xmlns="http://www.w3.org/2000/svg">
<path d="M15.25 16V6C15.25 5.58579 15.5858 5.25 16 5.25C16.4142 5.25 16.75 5.58579 16.75 6V16C16.75 16.4142 16.4142 16.75 16 16.75C15.5858 16.75 15.25 16.4142 15.25 16Z" fill="black"/>
<path d="M4.25 16C4.25 11.8579 6.39247 8.45737 9.59082 6.37207C9.93778 6.14598 10.4017 6.24389 10.6279 6.59082C10.854 6.93778 10.7561 7.40174 10.4092 7.62793C7.58762 9.46763 5.75 12.4197 5.75 16C5.75 18.7185 6.82971 21.3258 8.75195 23.248C10.6742 25.1703 13.2815 26.25 16 26.25C18.7185 26.25 21.3258 25.1703 23.248 23.248C25.1703 21.3258 26.25 18.7185 26.25 16C26.25 12.4197 24.4124 9.46763 21.5908 7.62793C21.2439 7.40174 21.146 6.93778 21.3721 6.59082C21.5983 6.24389 22.0622 6.14598 22.4092 6.37207C25.6075 8.45737 27.75 11.8579 27.75 16C27.75 19.1163 26.5121 22.105 24.3086 24.3086C22.105 26.5121 19.1163 27.75 16 27.75C12.8837 27.75 9.89496 26.5121 7.69141 24.3086C5.48785 22.105 4.25 19.1163 4.25 16Z" fill="black"/>
</svg>
