<svg width="32" height="32" viewBox="0 0 32 32" fill="none" xmlns="http://www.w3.org/2000/svg">
<path d="M16 18C14.7405 17.9972 13.226 18.1379 11.9212 18.5618C10.6165 18.9858 9.41882 19.6344 8.39686 20.4706C7.37489 21.3067 6.54876 22.3139 5.96585 23.4344C5.38294 24.5549 5.05471 25.7666 5 27H27C26.9453 25.7666 26.6171 24.5549 26.0342 23.4344C25.4512 22.3139 24.6251 21.3067 23.6031 20.4706C22.5812 19.6344 21.3835 18.9858 20.0788 18.5618C18.774 18.1379 17.3879 18.0031 16 18Z" stroke="#141ED2" stroke-width="1.5" stroke-linecap="round" stroke-linejoin="round"/>
<path d="M16 15C18.7614 15 21 12.7614 21 10C21 7.23858 18.7614 5 16 5C13.2386 5 11 7.23858 11 10C11 12.7614 13.2386 15 16 15Z" stroke="#141ED2" stroke-width="1.5" stroke-miterlimit="10"/>
</svg>
