<svg width="32" height="32" viewBox="0 0 32 32" fill="none" xmlns="http://www.w3.org/2000/svg">
<path fill-rule="evenodd" clip-rule="evenodd" d="M25.6922 9.46191C24.3021 9.46191 23.1753 10.6144 23.1753 12.0361C23.1753 13.4578 24.3021 14.6102 25.6922 14.6102C27.0823 14.6102 28.2092 13.4578 28.2092 12.0361C28.2092 10.6144 27.0823 9.46191 25.6922 9.46191ZM21.8024 12.0361C21.8024 9.83895 23.5439 8.05782 25.6922 8.05782C27.8405 8.05782 29.582 9.83895 29.582 12.0361C29.582 14.2332 27.8405 16.0143 25.6922 16.0143C23.5439 16.0143 21.8024 14.2332 21.8024 12.0361Z" fill="#141ED2"/>
<path fill-rule="evenodd" clip-rule="evenodd" d="M4.18373 20.6946C4.12304 20.6946 4.06484 20.7193 4.02193 20.7632C3.97902 20.8071 3.95491 20.8666 3.95491 20.9287V25.609C3.95491 25.671 3.97902 25.7305 4.02193 25.7744C4.06484 25.8183 4.12304 25.843 4.18373 25.843H7.84474C8.22385 25.843 8.53118 26.1573 8.53118 26.545C8.53118 26.9327 8.22385 27.2471 7.84474 27.2471H4.18373C3.75893 27.2471 3.35153 27.0745 3.05116 26.7673C2.75078 26.4601 2.58203 26.0434 2.58203 25.609V20.9287C2.58203 20.4942 2.75078 20.0775 3.05116 19.7703C3.35153 19.4631 3.75893 19.2905 4.18373 19.2905H7.84474C8.22385 19.2905 8.53118 19.6049 8.53118 19.9926C8.53118 20.3803 8.22385 20.6946 7.84474 20.6946H4.18373Z" fill="#141ED2"/>
<path fill-rule="evenodd" clip-rule="evenodd" d="M12.6481 16.9504C12.3775 16.9497 12.1093 17.0036 11.859 17.109C11.6089 17.2144 11.3815 17.3691 11.1899 17.5643C11.1897 17.5644 11.19 17.5641 11.1899 17.5643L8.53118 20.2834V25.843H15.9975L23.1848 24.0053L27.555 22.0987C27.7494 21.9957 27.9129 21.8407 28.0281 21.65C28.1465 21.4543 28.2091 21.2287 28.2092 20.9985C28.2089 20.8076 28.1657 20.6193 28.0827 20.4483C27.9998 20.2773 27.8794 20.1282 27.7309 20.0125C27.5825 19.8968 27.4099 19.8177 27.2267 19.7813C27.0435 19.7449 26.8545 19.7522 26.6745 19.8027C26.6653 19.8052 26.6561 19.8076 26.6469 19.8098L18.9817 21.6128C18.9312 21.6247 18.8796 21.6307 18.8278 21.6307H15.1668C14.7877 21.6307 14.4803 21.3164 14.4803 20.9287C14.4803 20.5409 14.7877 20.2266 15.1668 20.2266H18.3702C18.795 20.2266 19.2024 20.054 19.5027 19.7468C19.8031 19.4396 19.9719 19.023 19.9719 18.5885C19.9719 18.1541 19.8031 17.7374 19.5027 17.4302C19.2024 17.123 18.795 16.9504 18.3702 16.9504H12.6498L12.6481 16.9504ZM21.1537 19.6612L26.3264 18.4444C26.7056 18.3406 27.1029 18.3264 27.4884 18.4029C27.8789 18.4805 28.2466 18.6491 28.563 18.8956C28.8794 19.1422 29.1359 19.46 29.3126 19.8244C29.4894 20.1889 29.5816 20.5901 29.582 20.9969C29.5822 21.4882 29.4485 21.9704 29.1959 22.3883C28.9433 22.8063 28.5818 23.1439 28.1519 23.3634C28.1397 23.3696 28.1273 23.3755 28.1147 23.381L23.6734 25.3186C23.6401 25.3332 23.6057 25.345 23.5706 25.354L16.2485 27.2261C16.1941 27.24 16.1382 27.2471 16.082 27.2471L7.84474 27.2471C7.46563 27.2471 7.1583 26.9328 7.1583 26.545V19.9926C7.1583 19.8064 7.23062 19.6278 7.35936 19.4962L10.2204 16.5701C10.5399 16.2444 10.9191 15.9864 11.3363 15.8107C11.7532 15.6351 12.1998 15.5453 12.6506 15.5463C12.6503 15.5463 12.6509 15.5463 12.6506 15.5463H18.3702C19.1591 15.5463 19.9157 15.8668 20.4735 16.4374C21.0313 17.0079 21.3447 17.7817 21.3447 18.5885C21.3447 18.9585 21.2788 19.3215 21.1537 19.6612Z" fill="#141ED2"/>
<path fill-rule="evenodd" clip-rule="evenodd" d="M21.7378 6.73009C21.214 6.59428 20.6613 6.6345 20.1616 6.84478C19.6619 7.05507 19.2416 7.42426 18.9629 7.89776C18.6842 8.37126 18.5619 8.92391 18.6141 9.47399C18.6663 10.0241 18.8902 10.5424 19.2527 10.9522C19.6153 11.3621 20.0971 11.6417 20.6271 11.7498C21.157 11.8579 21.7069 11.7886 22.1954 11.5524C22.5381 11.3866 22.9473 11.5363 23.1094 11.8868C23.2715 12.2374 23.1251 12.6559 22.7824 12.8216C22.0274 13.1868 21.1776 13.2938 20.3586 13.1268C19.5396 12.9597 18.7949 12.5276 18.2346 11.8942C17.6744 11.2607 17.3283 10.4597 17.2476 9.60963C17.167 8.7595 17.356 7.9054 17.7867 7.17363C18.2174 6.44186 18.8669 5.87129 19.6392 5.54631C20.4115 5.22132 21.2656 5.15917 22.0751 5.36905C22.8847 5.57894 23.6067 6.04971 24.1343 6.71174C24.662 7.37377 24.9673 8.19191 25.0051 9.04515C25.0223 9.43248 24.7292 9.76071 24.3505 9.77827C23.9718 9.79583 23.6508 9.49607 23.6337 9.10874C23.6092 8.55664 23.4116 8.02726 23.0702 7.59889C22.7288 7.17052 22.2616 6.8659 21.7378 6.73009Z" fill="#141ED2"/>
</svg>
