<svg width="32" height="32" viewBox="0 0 32 32" fill="none" xmlns="http://www.w3.org/2000/svg">
<path d="M21.8633 18.6421C21.8633 18.2279 22.1991 17.8921 22.6133 17.8921C23.0275 17.8921 23.3633 18.2279 23.3633 18.6421V25.3423L24.8574 23.8491C25.1503 23.5562 25.6251 23.5562 25.918 23.8491C26.2106 24.142 26.2108 24.6169 25.918 24.9097L23.1436 27.6831C22.8507 27.976 22.3759 27.976 22.083 27.6831L19.3086 24.9097C19.0158 24.6169 19.016 24.142 19.3086 23.8491C19.6015 23.5562 20.0762 23.5562 20.3691 23.8491L21.8633 25.3423V18.6421ZM13.6133 16.0972C14.0275 16.0972 14.3633 16.433 14.3633 16.8472C14.3633 17.2614 14.0275 17.5972 13.6133 17.5972H10.6133C10.1991 17.5972 9.86328 17.2614 9.86328 16.8472C9.86328 16.433 10.1991 16.0972 10.6133 16.0972H13.6133ZM21.8633 14.8472V9.59717H19.2129C18.4676 9.59696 17.8635 8.99281 17.8633 8.24756V5.59717H7.36328V24.0972H16.6133C17.0275 24.0972 17.3633 24.433 17.3633 24.8472C17.3633 25.2614 17.0275 25.5972 16.6133 25.5972H7.21289C6.46764 25.597 5.86349 24.9929 5.86328 24.2476V5.44678C5.86349 4.7015 6.46762 4.09738 7.21289 4.09717H18.8652C19.2231 4.09729 19.5663 4.23955 19.8193 4.49268L22.9678 7.64111L23.0576 7.73975C23.2544 7.9799 23.3632 8.28202 23.3633 8.59521V14.8472C23.3633 15.2614 23.0275 15.5972 22.6133 15.5972C22.1991 15.5972 21.8633 15.2614 21.8633 14.8472ZM18.6133 12.0972C19.0275 12.0972 19.3633 12.433 19.3633 12.8472C19.3633 13.2614 19.0275 13.5972 18.6133 13.5972H10.6133C10.1991 13.5972 9.86328 13.2614 9.86328 12.8472C9.86328 12.433 10.1991 12.0972 10.6133 12.0972H18.6133ZM14.6133 8.09717C15.0275 8.09717 15.3633 8.43295 15.3633 8.84717C15.3633 9.26138 15.0275 9.59717 14.6133 9.59717H10.6133C10.1991 9.59717 9.86328 9.26138 9.86328 8.84717C9.86328 8.43295 10.1991 8.09717 10.6133 8.09717H14.6133ZM19.3633 8.09717H21.3027L19.3633 6.15771V8.09717Z" fill="#141ED2"/>
</svg>
