<svg width="32" height="32" viewBox="0 0 32 32" fill="none" xmlns="http://www.w3.org/2000/svg">
<path d="M20.8889 14.2221H26.2222C26.6937 14.2221 27.1459 14.0348 27.4793 13.7014C27.8127 13.368 28 12.9159 28 12.4444V7.11103C28 6.63953 27.8127 6.18735 27.4793 5.85395C27.1459 5.52055 26.6937 5.33325 26.2222 5.33325H20.8889C20.4174 5.33325 19.9652 5.52055 19.6318 5.85395C19.2984 6.18735 19.1111 6.63953 19.1111 7.11103V8.88881H17.3333C16.6261 8.88881 15.9478 9.16976 15.4477 9.66986C14.9476 10.17 14.6667 10.8482 14.6667 11.5555V15.111H11.1111V14.2221C11.1111 13.7506 10.9238 13.2985 10.5904 12.9651C10.257 12.6317 9.80483 12.4444 9.33333 12.4444H5.77778C5.30628 12.4444 4.8541 12.6317 4.5207 12.9651C4.1873 13.2985 4 13.7506 4 14.2221V17.7777C4 18.2492 4.1873 18.7014 4.5207 19.0348C4.8541 19.3682 5.30628 19.5555 5.77778 19.5555H9.33333C9.80483 19.5555 10.257 19.3682 10.5904 19.0348C10.9238 18.7014 11.1111 18.2492 11.1111 17.7777V16.8888H14.6667V20.4444C14.6667 21.1516 14.9476 21.8299 15.4477 22.33C15.9478 22.8301 16.6261 23.111 17.3333 23.111H19.1111V24.8888C19.1111 25.3603 19.2984 25.8125 19.6318 26.1459C19.9652 26.4793 20.4174 26.6666 20.8889 26.6666H26.2222C26.6937 26.6666 27.1459 26.4793 27.4793 26.1459C27.8127 25.8125 28 25.3603 28 24.8888V19.5555C28 19.084 27.8127 18.6318 27.4793 18.2984C27.1459 17.965 26.6937 17.7777 26.2222 17.7777H20.8889C20.4174 17.7777 19.9652 17.965 19.6318 18.2984C19.2984 18.6318 19.1111 19.084 19.1111 19.5555V21.3333H17.3333C17.0976 21.3333 16.8715 21.2396 16.7048 21.0729C16.5381 20.9062 16.4444 20.6801 16.4444 20.4444V11.5555C16.4444 11.3197 16.5381 11.0936 16.7048 10.9269C16.8715 10.7602 17.0976 10.6666 17.3333 10.6666H19.1111V12.4444C19.1111 12.9159 19.2984 13.368 19.6318 13.7014C19.9652 14.0348 20.4174 14.2221 20.8889 14.2221ZM9.33333 17.7777H5.77778V14.2221H9.33333V17.7777ZM20.8889 19.5555H26.2222V24.8888H20.8889V19.5555ZM20.8889 7.11103H26.2222V12.4444H20.8889V7.11103Z" fill="#141ED2"/>
</svg>
