<svg width="32" height="32" viewBox="0 0 32 32" fill="none" xmlns="http://www.w3.org/2000/svg">
<path fill-rule="evenodd" clip-rule="evenodd" d="M7.48036 5.43921C6.93901 5.43921 6.41984 5.65426 6.03705 6.03705C5.65426 6.41984 5.43921 6.93901 5.43921 7.48036V8.90028C5.43921 9.3414 5.08162 9.69899 4.64051 9.69899C4.19939 9.69899 3.8418 9.3414 3.8418 8.90028V7.48036C3.8418 6.51535 4.22514 5.58987 4.90751 4.90751C5.58987 4.22514 6.51535 3.8418 7.48036 3.8418H10.3202C10.7613 3.8418 11.1189 4.19939 11.1189 4.64051C11.1189 5.08162 10.7613 5.43921 10.3202 5.43921H7.48036Z" fill="#141ED2"/>
<path fill-rule="evenodd" clip-rule="evenodd" d="M4.64051 22.301C5.08162 22.301 5.43921 22.6586 5.43921 23.0997V24.5196C5.43921 25.061 5.65426 25.5802 6.03705 25.9629C6.41984 26.3457 6.93901 26.5608 7.48036 26.5608H10.3202C10.7613 26.5608 11.1189 26.9184 11.1189 27.3595C11.1189 27.8006 10.7613 28.1582 10.3202 28.1582H7.48036C6.51535 28.1582 5.58987 27.7749 4.90751 27.0925C4.22514 26.4101 3.8418 25.4846 3.8418 24.5196V23.0997C3.8418 22.6586 4.19939 22.301 4.64051 22.301Z" fill="#141ED2"/>
<path fill-rule="evenodd" clip-rule="evenodd" d="M20.8809 4.64051C20.8809 4.19939 21.2385 3.8418 21.6796 3.8418H24.5195C25.4845 3.8418 26.41 4.22514 27.0923 4.90751C27.7747 5.58987 28.158 6.51535 28.158 7.48036V8.90028C28.158 9.3414 27.8004 9.69899 27.3593 9.69899C26.9182 9.69899 26.5606 9.3414 26.5606 8.90028V7.48036C26.5606 6.93901 26.3456 6.41984 25.9628 6.03705C25.58 5.65426 25.0608 5.43921 24.5195 5.43921H21.6796C21.2385 5.43921 20.8809 5.08162 20.8809 4.64051Z" fill="#141ED2"/>
<path fill-rule="evenodd" clip-rule="evenodd" d="M27.3593 22.301C27.8004 22.301 28.158 22.6586 28.158 23.0997V24.5196C28.158 25.4846 27.7747 26.4101 27.0923 27.0925C26.41 27.7749 25.4845 28.1582 24.5195 28.1582H21.6796C21.2385 28.1582 20.8809 27.8006 20.8809 27.3595C20.8809 26.9184 21.2385 26.5608 21.6796 26.5608H24.5195C25.0608 26.5608 25.58 26.3457 25.9628 25.9629C26.3456 25.5802 26.5606 25.061 26.5606 24.5196V23.0997C26.5606 22.6586 26.9182 22.301 27.3593 22.301Z" fill="#141ED2"/>
<path fill-rule="evenodd" clip-rule="evenodd" d="M5.26138 16C5.26138 15.5589 5.61897 15.2013 6.06008 15.2013H25.9391C26.3802 15.2013 26.7378 15.5589 26.7378 16C26.7378 16.4411 26.3802 16.7987 25.9391 16.7987H6.06008C5.61897 16.7987 5.26138 16.4411 5.26138 16Z" fill="#141ED2"/>
</svg>
