<svg width="32" height="32" viewBox="0 0 32 32" fill="none" xmlns="http://www.w3.org/2000/svg">
<path d="M6.00038 16.2467C5.5838 16.2467 5.24609 16.5845 5.24609 17.001C5.24609 17.4176 5.5838 17.7553 6.00038 17.7553H8.00244C8.41902 17.7553 8.75672 17.4176 8.75672 17.001C8.75672 16.5845 8.41902 16.2467 8.00244 16.2467H6.00038Z" fill="#141ED2"/>
<path d="M10.2461 17.001C10.2461 16.5845 10.5838 16.2467 11.0004 16.2467H13.0024C13.419 16.2467 13.7567 16.5845 13.7567 17.001C13.7567 17.4176 13.419 17.7553 13.0024 17.7553H11.0004C10.5838 17.7553 10.2461 17.4176 10.2461 17.001Z" fill="#141ED2"/>
<path d="M16.0004 16.2467C15.5838 16.2467 15.2461 16.5845 15.2461 17.001C15.2461 17.4176 15.5838 17.7553 16.0004 17.7553H22.0004C22.417 17.7553 22.7547 17.4176 22.7547 17.001C22.7547 16.5845 22.417 16.2467 22.0004 16.2467H16.0004Z" fill="#141ED2"/>
<path fill-rule="evenodd" clip-rule="evenodd" d="M5.01182 4.24609C3.48435 4.24609 2.24609 5.48435 2.24609 7.01182V19.9889C2.24609 21.3686 3.25626 22.5123 4.57729 22.7207C4.62567 24.0345 5.60898 25.1651 6.95658 25.3545L25.7469 27.9953C27.2595 28.2079 28.658 27.154 28.8706 25.6414L30.4131 14.6661C30.6176 13.2111 29.6487 11.8502 28.2069 11.5672L26.7547 11.2823V7.01182C26.7547 5.48435 25.5164 4.24609 23.9889 4.24609H5.01182ZM22.0004 9.75467H3.75467V19.9889C3.75467 20.6832 4.31752 21.2461 5.01182 21.2461H23.9889C24.6832 21.2461 25.2461 20.6832 25.2461 19.9889V7.01182C25.2461 6.31752 24.6832 5.75467 23.9889 5.75467H5.01182C4.31752 5.75467 3.75467 6.31752 3.75467 7.01182V8.24609H22.0004C22.417 8.24609 22.7547 8.5838 22.7547 9.00038C22.7547 9.41696 22.417 9.75467 22.0004 9.75467ZM26.7547 12.8196V19.9889C26.7547 21.5164 25.5164 22.7547 23.9889 22.7547H6.09175C6.15334 23.3122 6.58542 23.779 7.16654 23.8606L25.9569 26.5014C26.6444 26.5981 27.2801 26.119 27.3767 25.4315L28.9192 14.4562C29.0122 13.7948 28.5717 13.1762 27.9164 13.0476L26.7547 12.8196Z" fill="#141ED2"/>
</svg>
